<svg xmlns="http://www.w3.org/2000/svg" xmlns:xlink="http://www.w3.org/1999/xlink" width="816" zoomAndPan="magnify" viewBox="0 0 612 791.999994" height="1056" preserveAspectRatio="xMidYMid meet" version="1.0"><defs><g/><clipPath id="92b58c5e5f"><path d="M 249.003906 100.644531 L 361.984375 100.644531 L 361.984375 213.625 L 249.003906 213.625 Z M 249.003906 100.644531 " clip-rule="nonzero"/></clipPath><clipPath id="e4484b96a0"><path d="M 305.492188 100.644531 C 274.296875 100.644531 249.003906 125.933594 249.003906 157.132812 C 249.003906 188.332031 274.296875 213.625 305.492188 213.625 C 336.691406 213.625 361.984375 188.332031 361.984375 157.132812 C 361.984375 125.933594 336.691406 100.644531 305.492188 100.644531 Z M 305.492188 100.644531 " clip-rule="nonzero"/></clipPath><clipPath id="5d2f52a881"><path d="M 258 146 L 350.25 146 L 350.25 178.597656 L 258 178.597656 Z M 258 146 " clip-rule="nonzero"/></clipPath><clipPath id="8af04f8d2f"><path d="M 250.015625 345.371094 L 362.996094 345.371094 L 362.996094 458.351562 L 250.015625 458.351562 Z M 250.015625 345.371094 " clip-rule="nonzero"/></clipPath><clipPath id="ae1d40649a"><path d="M 306.507812 345.371094 C 275.308594 345.371094 250.015625 370.664062 250.015625 401.863281 C 250.015625 433.0625 275.308594 458.351562 306.507812 458.351562 C 337.703125 458.351562 362.996094 433.0625 362.996094 401.863281 C 362.996094 370.664062 337.703125 345.371094 306.507812 345.371094 Z M 306.507812 345.371094 " clip-rule="nonzero"/></clipPath><clipPath id="bfbc777e17"><path d="M 298 404 L 338 404 L 338 440.425781 L 298 440.425781 Z M 298 404 " clip-rule="nonzero"/></clipPath><clipPath id="5efb5c43bd"><path d="M 268.742188 360.925781 L 341 360.925781 L 341 432 L 268.742188 432 Z M 268.742188 360.925781 " clip-rule="nonzero"/></clipPath><clipPath id="73ebb5cd7c"><path d="M 268.742188 368 L 341 368 L 341 432 L 268.742188 432 Z M 268.742188 368 " clip-rule="nonzero"/></clipPath><clipPath id="3474f82b89"><path d="M 271 360.925781 L 340 360.925781 L 340 409 L 271 409 Z M 271 360.925781 " clip-rule="nonzero"/></clipPath><clipPath id="ee9f0ad19d"><path d="M 258 590.417969 L 370.980469 590.417969 L 370.980469 703.398438 L 258 703.398438 Z M 258 590.417969 " clip-rule="nonzero"/></clipPath><clipPath id="4595eb165c"><path d="M 314.488281 590.417969 C 283.292969 590.417969 258 615.707031 258 646.90625 C 258 678.105469 283.292969 703.398438 314.488281 703.398438 C 345.6875 703.398438 370.980469 678.105469 370.980469 646.90625 C 370.980469 615.707031 345.6875 590.417969 314.488281 590.417969 Z M 314.488281 590.417969 " clip-rule="nonzero"/></clipPath><clipPath id="52a6fce897"><path d="M 263.765625 603.714844 L 362.765625 603.714844 L 362.765625 657 L 263.765625 657 Z M 263.765625 603.714844 " clip-rule="nonzero"/></clipPath><clipPath id="65584d9dc8"><path d="M 317 658 L 350 658 L 350 689.964844 L 317 689.964844 Z M 317 658 " clip-rule="nonzero"/></clipPath></defs><g fill="#000000" fill-opacity="1"><g transform="translate(96.275388, 67.553899)"><g><path d="M 14.65625 0.3125 C 10.914062 0.3125 7.847656 -0.570312 5.453125 -2.34375 C 3.054688 -4.113281 1.769531 -6.65625 1.59375 -9.96875 L 11.109375 -9.96875 C 11.191406 -8.84375 11.519531 -8.019531 12.09375 -7.5 C 12.675781 -6.988281 13.421875 -6.734375 14.328125 -6.734375 C 15.148438 -6.734375 15.828125 -6.9375 16.359375 -7.34375 C 16.890625 -7.757812 17.15625 -8.328125 17.15625 -9.046875 C 17.15625 -9.992188 16.710938 -10.722656 15.828125 -11.234375 C 14.953125 -11.753906 13.53125 -12.332031 11.5625 -12.96875 C 9.46875 -13.664062 7.773438 -14.335938 6.484375 -14.984375 C 5.191406 -15.640625 4.066406 -16.597656 3.109375 -17.859375 C 2.160156 -19.117188 1.6875 -20.765625 1.6875 -22.796875 C 1.6875 -24.859375 2.203125 -26.625 3.234375 -28.09375 C 4.265625 -29.5625 5.6875 -30.675781 7.5 -31.4375 C 9.320312 -32.195312 11.390625 -32.578125 13.703125 -32.578125 C 17.429688 -32.578125 20.410156 -31.703125 22.640625 -29.953125 C 24.867188 -28.210938 26.054688 -25.765625 26.203125 -22.609375 L 16.515625 -22.609375 C 16.484375 -23.578125 16.1875 -24.304688 15.625 -24.796875 C 15.0625 -25.285156 14.34375 -25.53125 13.46875 -25.53125 C 12.800781 -25.53125 12.253906 -25.332031 11.828125 -24.9375 C 11.398438 -24.539062 11.1875 -23.976562 11.1875 -23.25 C 11.1875 -22.644531 11.421875 -22.117188 11.890625 -21.671875 C 12.367188 -21.234375 12.957031 -20.851562 13.65625 -20.53125 C 14.351562 -20.21875 15.382812 -19.820312 16.75 -19.34375 C 18.78125 -18.644531 20.453125 -17.953125 21.765625 -17.265625 C 23.085938 -16.585938 24.226562 -15.632812 25.1875 -14.40625 C 26.144531 -13.175781 26.625 -11.617188 26.625 -9.734375 C 26.625 -7.828125 26.144531 -6.113281 25.1875 -4.59375 C 24.226562 -3.082031 22.847656 -1.882812 21.046875 -1 C 19.242188 -0.125 17.113281 0.3125 14.65625 0.3125 Z M 14.65625 0.3125 "/></g></g></g><g fill="#000000" fill-opacity="1"><g transform="translate(124.480575, 67.553899)"><g><path d="M 11.46875 -24.9375 L 11.46875 -19.703125 L 21.703125 -19.703125 L 21.703125 -12.921875 L 11.46875 -12.921875 L 11.46875 -7.140625 L 23.0625 -7.140625 L 23.0625 0 L 2.546875 0 L 2.546875 -32.078125 L 23.0625 -32.078125 L 23.0625 -24.9375 Z M 11.46875 -24.9375 "/></g></g></g><g fill="#000000" fill-opacity="1"><g transform="translate(149.410315, 67.553899)"><g><path d="M 1.453125 -16.109375 C 1.453125 -19.265625 2.113281 -22.078125 3.4375 -24.546875 C 4.757812 -27.015625 6.628906 -28.9375 9.046875 -30.3125 C 11.472656 -31.695312 14.265625 -32.390625 17.421875 -32.390625 C 21.429688 -32.390625 24.800781 -31.320312 27.53125 -29.1875 C 30.257812 -27.050781 32.019531 -24.144531 32.8125 -20.46875 L 23.203125 -20.46875 C 22.628906 -21.6875 21.832031 -22.613281 20.8125 -23.25 C 19.800781 -23.882812 18.628906 -24.203125 17.296875 -24.203125 C 15.234375 -24.203125 13.585938 -23.46875 12.359375 -22 C 11.128906 -20.53125 10.515625 -18.566406 10.515625 -16.109375 C 10.515625 -13.617188 11.128906 -11.640625 12.359375 -10.171875 C 13.585938 -8.703125 15.234375 -7.96875 17.296875 -7.96875 C 18.628906 -7.96875 19.800781 -8.285156 20.8125 -8.921875 C 21.832031 -9.554688 22.628906 -10.476562 23.203125 -11.6875 L 32.8125 -11.6875 C 32.019531 -8.019531 30.257812 -5.113281 27.53125 -2.96875 C 24.800781 -0.832031 21.429688 0.234375 17.421875 0.234375 C 14.265625 0.234375 11.472656 -0.453125 9.046875 -1.828125 C 6.628906 -3.210938 4.757812 -5.140625 3.4375 -7.609375 C 2.113281 -10.085938 1.453125 -12.921875 1.453125 -16.109375 Z M 1.453125 -16.109375 "/></g></g></g><g fill="#000000" fill-opacity="1"><g transform="translate(183.893422, 67.553899)"><g><path d="M 26.703125 -32.078125 L 26.703125 -24.984375 L 18.15625 -24.984375 L 18.15625 0 L 9.234375 0 L 9.234375 -24.984375 L 0.78125 -24.984375 L 0.78125 -32.078125 Z M 26.703125 -32.078125 "/></g></g></g><g fill="#000000" fill-opacity="1"><g transform="translate(211.370731, 67.553899)"><g><path d="M 17.921875 0.3125 C 14.921875 0.3125 12.160156 -0.390625 9.640625 -1.796875 C 7.128906 -3.203125 5.132812 -5.15625 3.65625 -7.65625 C 2.1875 -10.164062 1.453125 -13 1.453125 -16.15625 C 1.453125 -19.3125 2.1875 -22.140625 3.65625 -24.640625 C 5.132812 -27.140625 7.128906 -29.085938 9.640625 -30.484375 C 12.160156 -31.878906 14.921875 -32.578125 17.921875 -32.578125 C 20.960938 -32.578125 23.734375 -31.878906 26.234375 -30.484375 C 28.734375 -29.085938 30.710938 -27.140625 32.171875 -24.640625 C 33.628906 -22.140625 34.359375 -19.3125 34.359375 -16.15625 C 34.359375 -13 33.628906 -10.164062 32.171875 -7.65625 C 30.710938 -5.15625 28.722656 -3.203125 26.203125 -1.796875 C 23.691406 -0.390625 20.929688 0.3125 17.921875 0.3125 Z M 17.921875 -7.96875 C 20.203125 -7.96875 22 -8.707031 23.3125 -10.1875 C 24.632812 -11.675781 25.296875 -13.664062 25.296875 -16.15625 C 25.296875 -18.695312 24.632812 -20.703125 23.3125 -22.171875 C 22 -23.648438 20.203125 -24.390625 17.921875 -24.390625 C 15.617188 -24.390625 13.816406 -23.648438 12.515625 -22.171875 C 11.210938 -20.703125 10.5625 -18.695312 10.5625 -16.15625 C 10.5625 -13.632812 11.210938 -11.640625 12.515625 -10.171875 C 13.816406 -8.703125 15.617188 -7.96875 17.921875 -7.96875 Z M 17.921875 -7.96875 "/></g></g></g><g fill="#000000" fill-opacity="1"><g transform="translate(247.173112, 67.553899)"><g><path d="M 18.796875 0 L 12.421875 -11.828125 L 11.46875 -11.828125 L 11.46875 0 L 2.546875 0 L 2.546875 -32.078125 L 16.609375 -32.078125 C 19.179688 -32.078125 21.363281 -31.628906 23.15625 -30.734375 C 24.945312 -29.835938 26.296875 -28.609375 27.203125 -27.046875 C 28.117188 -25.484375 28.578125 -23.734375 28.578125 -21.796875 C 28.578125 -19.609375 27.976562 -17.6875 26.78125 -16.03125 C 25.582031 -14.382812 23.828125 -13.210938 21.515625 -12.515625 L 28.75 0 Z M 11.46875 -17.921875 L 15.875 -17.921875 C 17.09375 -17.921875 18.003906 -18.207031 18.609375 -18.78125 C 19.210938 -19.363281 19.515625 -20.203125 19.515625 -21.296875 C 19.515625 -22.328125 19.203125 -23.132812 18.578125 -23.71875 C 17.960938 -24.3125 17.0625 -24.609375 15.875 -24.609375 L 11.46875 -24.609375 Z M 11.46875 -17.921875 "/></g></g></g><g fill="#000000" fill-opacity="1"><g transform="translate(277.24348, 67.553899)"><g/></g></g><g fill="#000000" fill-opacity="1"><g transform="translate(285.932498, 67.553899)"><g><path d="M 27.890625 -21.390625 C 27.890625 -19.441406 27.441406 -17.671875 26.546875 -16.078125 C 25.648438 -14.492188 24.300781 -13.222656 22.5 -12.265625 C 20.695312 -11.304688 18.488281 -10.828125 15.875 -10.828125 L 11.46875 -10.828125 L 11.46875 0 L 2.546875 0 L 2.546875 -32.078125 L 15.875 -32.078125 C 18.457031 -32.078125 20.648438 -31.617188 22.453125 -30.703125 C 24.253906 -29.796875 25.609375 -28.539062 26.515625 -26.9375 C 27.429688 -25.332031 27.890625 -23.484375 27.890625 -21.390625 Z M 15.015625 -17.921875 C 17.535156 -17.921875 18.796875 -19.078125 18.796875 -21.390625 C 18.796875 -23.722656 17.535156 -24.890625 15.015625 -24.890625 L 11.46875 -24.890625 L 11.46875 -17.921875 Z M 15.015625 -17.921875 "/></g></g></g><g fill="#000000" fill-opacity="1"><g transform="translate(314.865541, 67.553899)"><g><path d="M 18.796875 0 L 12.421875 -11.828125 L 11.46875 -11.828125 L 11.46875 0 L 2.546875 0 L 2.546875 -32.078125 L 16.609375 -32.078125 C 19.179688 -32.078125 21.363281 -31.628906 23.15625 -30.734375 C 24.945312 -29.835938 26.296875 -28.609375 27.203125 -27.046875 C 28.117188 -25.484375 28.578125 -23.734375 28.578125 -21.796875 C 28.578125 -19.609375 27.976562 -17.6875 26.78125 -16.03125 C 25.582031 -14.382812 23.828125 -13.210938 21.515625 -12.515625 L 28.75 0 Z M 11.46875 -17.921875 L 15.875 -17.921875 C 17.09375 -17.921875 18.003906 -18.207031 18.609375 -18.78125 C 19.210938 -19.363281 19.515625 -20.203125 19.515625 -21.296875 C 19.515625 -22.328125 19.203125 -23.132812 18.578125 -23.71875 C 17.960938 -24.3125 17.0625 -24.609375 15.875 -24.609375 L 11.46875 -24.609375 Z M 11.46875 -17.921875 "/></g></g></g><g fill="#000000" fill-opacity="1"><g transform="translate(344.935898, 67.553899)"><g><path d="M 11.46875 -32.078125 L 11.46875 0 L 2.546875 0 L 2.546875 -32.078125 Z M 11.46875 -32.078125 "/></g></g></g><g fill="#000000" fill-opacity="1"><g transform="translate(358.947494, 67.553899)"><g><path d="M 40 -32.078125 L 40 0 L 31.078125 0 L 31.078125 -17.703125 L 25.03125 0 L 17.5625 0 L 11.46875 -17.84375 L 11.46875 0 L 2.546875 0 L 2.546875 -32.078125 L 13.328125 -32.078125 L 21.390625 -11.234375 L 29.25 -32.078125 Z M 40 -32.078125 "/></g></g></g><g fill="#000000" fill-opacity="1"><g transform="translate(401.482732, 67.553899)"><g><path d="M 22.84375 -5.234375 L 11.46875 -5.234375 L 9.734375 0 L 0.359375 0 L 12.0625 -32.078125 L 22.34375 -32.078125 L 33.984375 0 L 24.5625 0 Z M 20.609375 -12.0625 L 17.15625 -22.4375 L 13.734375 -12.0625 Z M 20.609375 -12.0625 "/></g></g></g><g fill="#000000" fill-opacity="1"><g transform="translate(435.829357, 67.553899)"><g><path d="M 18.796875 0 L 12.421875 -11.828125 L 11.46875 -11.828125 L 11.46875 0 L 2.546875 0 L 2.546875 -32.078125 L 16.609375 -32.078125 C 19.179688 -32.078125 21.363281 -31.628906 23.15625 -30.734375 C 24.945312 -29.835938 26.296875 -28.609375 27.203125 -27.046875 C 28.117188 -25.484375 28.578125 -23.734375 28.578125 -21.796875 C 28.578125 -19.609375 27.976562 -17.6875 26.78125 -16.03125 C 25.582031 -14.382812 23.828125 -13.210938 21.515625 -12.515625 L 28.75 0 Z M 11.46875 -17.921875 L 15.875 -17.921875 C 17.09375 -17.921875 18.003906 -18.207031 18.609375 -18.78125 C 19.210938 -19.363281 19.515625 -20.203125 19.515625 -21.296875 C 19.515625 -22.328125 19.203125 -23.132812 18.578125 -23.71875 C 17.960938 -24.3125 17.0625 -24.609375 15.875 -24.609375 L 11.46875 -24.609375 Z M 11.46875 -17.921875 "/></g></g></g><g fill="#000000" fill-opacity="1"><g transform="translate(465.899714, 67.553899)"><g><path d="M 11.46875 -32.078125 L 11.46875 0 L 2.546875 0 L 2.546875 -32.078125 Z M 11.46875 -32.078125 "/></g></g></g><g fill="#000000" fill-opacity="1"><g transform="translate(479.91131, 67.553899)"><g><path d="M 17.921875 0.3125 C 14.921875 0.3125 12.160156 -0.390625 9.640625 -1.796875 C 7.128906 -3.203125 5.132812 -5.15625 3.65625 -7.65625 C 2.1875 -10.164062 1.453125 -13 1.453125 -16.15625 C 1.453125 -19.3125 2.1875 -22.140625 3.65625 -24.640625 C 5.132812 -27.140625 7.128906 -29.085938 9.640625 -30.484375 C 12.160156 -31.878906 14.921875 -32.578125 17.921875 -32.578125 C 20.960938 -32.578125 23.734375 -31.878906 26.234375 -30.484375 C 28.734375 -29.085938 30.710938 -27.140625 32.171875 -24.640625 C 33.628906 -22.140625 34.359375 -19.3125 34.359375 -16.15625 C 34.359375 -13 33.628906 -10.164062 32.171875 -7.65625 C 30.710938 -5.15625 28.722656 -3.203125 26.203125 -1.796875 C 23.691406 -0.390625 20.929688 0.3125 17.921875 0.3125 Z M 17.921875 -7.96875 C 20.203125 -7.96875 22 -8.707031 23.3125 -10.1875 C 24.632812 -11.675781 25.296875 -13.664062 25.296875 -16.15625 C 25.296875 -18.695312 24.632812 -20.703125 23.3125 -22.171875 C 22 -23.648438 20.203125 -24.390625 17.921875 -24.390625 C 15.617188 -24.390625 13.816406 -23.648438 12.515625 -22.171875 C 11.210938 -20.703125 10.5625 -18.695312 10.5625 -16.15625 C 10.5625 -13.632812 11.210938 -11.640625 12.515625 -10.171875 C 13.816406 -8.703125 15.617188 -7.96875 17.921875 -7.96875 Z M 17.921875 -7.96875 "/></g></g></g><g fill="#000000" fill-opacity="1"><g transform="translate(61.211718, 312.422728)"><g><path d="M 14.65625 0.3125 C 10.914062 0.3125 7.847656 -0.570312 5.453125 -2.34375 C 3.054688 -4.113281 1.769531 -6.65625 1.59375 -9.96875 L 11.109375 -9.96875 C 11.191406 -8.84375 11.519531 -8.019531 12.09375 -7.5 C 12.675781 -6.988281 13.421875 -6.734375 14.328125 -6.734375 C 15.148438 -6.734375 15.828125 -6.9375 16.359375 -7.34375 C 16.890625 -7.757812 17.15625 -8.328125 17.15625 -9.046875 C 17.15625 -9.992188 16.710938 -10.722656 15.828125 -11.234375 C 14.953125 -11.753906 13.53125 -12.332031 11.5625 -12.96875 C 9.46875 -13.664062 7.773438 -14.335938 6.484375 -14.984375 C 5.191406 -15.640625 4.066406 -16.597656 3.109375 -17.859375 C 2.160156 -19.117188 1.6875 -20.765625 1.6875 -22.796875 C 1.6875 -24.859375 2.203125 -26.625 3.234375 -28.09375 C 4.265625 -29.5625 5.6875 -30.675781 7.5 -31.4375 C 9.320312 -32.195312 11.390625 -32.578125 13.703125 -32.578125 C 17.429688 -32.578125 20.410156 -31.703125 22.640625 -29.953125 C 24.867188 -28.210938 26.054688 -25.765625 26.203125 -22.609375 L 16.515625 -22.609375 C 16.484375 -23.578125 16.1875 -24.304688 15.625 -24.796875 C 15.0625 -25.285156 14.34375 -25.53125 13.46875 -25.53125 C 12.800781 -25.53125 12.253906 -25.332031 11.828125 -24.9375 C 11.398438 -24.539062 11.1875 -23.976562 11.1875 -23.25 C 11.1875 -22.644531 11.421875 -22.117188 11.890625 -21.671875 C 12.367188 -21.234375 12.957031 -20.851562 13.65625 -20.53125 C 14.351562 -20.21875 15.382812 -19.820312 16.75 -19.34375 C 18.78125 -18.644531 20.453125 -17.953125 21.765625 -17.265625 C 23.085938 -16.585938 24.226562 -15.632812 25.1875 -14.40625 C 26.144531 -13.175781 26.625 -11.617188 26.625 -9.734375 C 26.625 -7.828125 26.144531 -6.113281 25.1875 -4.59375 C 24.226562 -3.082031 22.847656 -1.882812 21.046875 -1 C 19.242188 -0.125 17.113281 0.3125 14.65625 0.3125 Z M 14.65625 0.3125 "/></g></g></g><g fill="#000000" fill-opacity="1"><g transform="translate(89.416905, 312.422728)"><g><path d="M 11.46875 -24.9375 L 11.46875 -19.703125 L 21.703125 -19.703125 L 21.703125 -12.921875 L 11.46875 -12.921875 L 11.46875 -7.140625 L 23.0625 -7.140625 L 23.0625 0 L 2.546875 0 L 2.546875 -32.078125 L 23.0625 -32.078125 L 23.0625 -24.9375 Z M 11.46875 -24.9375 "/></g></g></g><g fill="#000000" fill-opacity="1"><g transform="translate(114.346645, 312.422728)"><g><path d="M 1.453125 -16.109375 C 1.453125 -19.265625 2.113281 -22.078125 3.4375 -24.546875 C 4.757812 -27.015625 6.628906 -28.9375 9.046875 -30.3125 C 11.472656 -31.695312 14.265625 -32.390625 17.421875 -32.390625 C 21.429688 -32.390625 24.800781 -31.320312 27.53125 -29.1875 C 30.257812 -27.050781 32.019531 -24.144531 32.8125 -20.46875 L 23.203125 -20.46875 C 22.628906 -21.6875 21.832031 -22.613281 20.8125 -23.25 C 19.800781 -23.882812 18.628906 -24.203125 17.296875 -24.203125 C 15.234375 -24.203125 13.585938 -23.46875 12.359375 -22 C 11.128906 -20.53125 10.515625 -18.566406 10.515625 -16.109375 C 10.515625 -13.617188 11.128906 -11.640625 12.359375 -10.171875 C 13.585938 -8.703125 15.234375 -7.96875 17.296875 -7.96875 C 18.628906 -7.96875 19.800781 -8.285156 20.8125 -8.921875 C 21.832031 -9.554688 22.628906 -10.476562 23.203125 -11.6875 L 32.8125 -11.6875 C 32.019531 -8.019531 30.257812 -5.113281 27.53125 -2.96875 C 24.800781 -0.832031 21.429688 0.234375 17.421875 0.234375 C 14.265625 0.234375 11.472656 -0.453125 9.046875 -1.828125 C 6.628906 -3.210938 4.757812 -5.140625 3.4375 -7.609375 C 2.113281 -10.085938 1.453125 -12.921875 1.453125 -16.109375 Z M 1.453125 -16.109375 "/></g></g></g><g fill="#000000" fill-opacity="1"><g transform="translate(148.829752, 312.422728)"><g><path d="M 26.703125 -32.078125 L 26.703125 -24.984375 L 18.15625 -24.984375 L 18.15625 0 L 9.234375 0 L 9.234375 -24.984375 L 0.78125 -24.984375 L 0.78125 -32.078125 Z M 26.703125 -32.078125 "/></g></g></g><g fill="#000000" fill-opacity="1"><g transform="translate(176.307061, 312.422728)"><g><path d="M 17.921875 0.3125 C 14.921875 0.3125 12.160156 -0.390625 9.640625 -1.796875 C 7.128906 -3.203125 5.132812 -5.15625 3.65625 -7.65625 C 2.1875 -10.164062 1.453125 -13 1.453125 -16.15625 C 1.453125 -19.3125 2.1875 -22.140625 3.65625 -24.640625 C 5.132812 -27.140625 7.128906 -29.085938 9.640625 -30.484375 C 12.160156 -31.878906 14.921875 -32.578125 17.921875 -32.578125 C 20.960938 -32.578125 23.734375 -31.878906 26.234375 -30.484375 C 28.734375 -29.085938 30.710938 -27.140625 32.171875 -24.640625 C 33.628906 -22.140625 34.359375 -19.3125 34.359375 -16.15625 C 34.359375 -13 33.628906 -10.164062 32.171875 -7.65625 C 30.710938 -5.15625 28.722656 -3.203125 26.203125 -1.796875 C 23.691406 -0.390625 20.929688 0.3125 17.921875 0.3125 Z M 17.921875 -7.96875 C 20.203125 -7.96875 22 -8.707031 23.3125 -10.1875 C 24.632812 -11.675781 25.296875 -13.664062 25.296875 -16.15625 C 25.296875 -18.695312 24.632812 -20.703125 23.3125 -22.171875 C 22 -23.648438 20.203125 -24.390625 17.921875 -24.390625 C 15.617188 -24.390625 13.816406 -23.648438 12.515625 -22.171875 C 11.210938 -20.703125 10.5625 -18.695312 10.5625 -16.15625 C 10.5625 -13.632812 11.210938 -11.640625 12.515625 -10.171875 C 13.816406 -8.703125 15.617188 -7.96875 17.921875 -7.96875 Z M 17.921875 -7.96875 "/></g></g></g><g fill="#000000" fill-opacity="1"><g transform="translate(212.109443, 312.422728)"><g><path d="M 18.796875 0 L 12.421875 -11.828125 L 11.46875 -11.828125 L 11.46875 0 L 2.546875 0 L 2.546875 -32.078125 L 16.609375 -32.078125 C 19.179688 -32.078125 21.363281 -31.628906 23.15625 -30.734375 C 24.945312 -29.835938 26.296875 -28.609375 27.203125 -27.046875 C 28.117188 -25.484375 28.578125 -23.734375 28.578125 -21.796875 C 28.578125 -19.609375 27.976562 -17.6875 26.78125 -16.03125 C 25.582031 -14.382812 23.828125 -13.210938 21.515625 -12.515625 L 28.75 0 Z M 11.46875 -17.921875 L 15.875 -17.921875 C 17.09375 -17.921875 18.003906 -18.207031 18.609375 -18.78125 C 19.210938 -19.363281 19.515625 -20.203125 19.515625 -21.296875 C 19.515625 -22.328125 19.203125 -23.132812 18.578125 -23.71875 C 17.960938 -24.3125 17.0625 -24.609375 15.875 -24.609375 L 11.46875 -24.609375 Z M 11.46875 -17.921875 "/></g></g></g><g fill="#000000" fill-opacity="1"><g transform="translate(242.179811, 312.422728)"><g/></g></g><g fill="#000000" fill-opacity="1"><g transform="translate(250.868829, 312.422728)"><g><path d="M 14.65625 0.3125 C 10.914062 0.3125 7.847656 -0.570312 5.453125 -2.34375 C 3.054688 -4.113281 1.769531 -6.65625 1.59375 -9.96875 L 11.109375 -9.96875 C 11.191406 -8.84375 11.519531 -8.019531 12.09375 -7.5 C 12.675781 -6.988281 13.421875 -6.734375 14.328125 -6.734375 C 15.148438 -6.734375 15.828125 -6.9375 16.359375 -7.34375 C 16.890625 -7.757812 17.15625 -8.328125 17.15625 -9.046875 C 17.15625 -9.992188 16.710938 -10.722656 15.828125 -11.234375 C 14.953125 -11.753906 13.53125 -12.332031 11.5625 -12.96875 C 9.46875 -13.664062 7.773438 -14.335938 6.484375 -14.984375 C 5.191406 -15.640625 4.066406 -16.597656 3.109375 -17.859375 C 2.160156 -19.117188 1.6875 -20.765625 1.6875 -22.796875 C 1.6875 -24.859375 2.203125 -26.625 3.234375 -28.09375 C 4.265625 -29.5625 5.6875 -30.675781 7.5 -31.4375 C 9.320312 -32.195312 11.390625 -32.578125 13.703125 -32.578125 C 17.429688 -32.578125 20.410156 -31.703125 22.640625 -29.953125 C 24.867188 -28.210938 26.054688 -25.765625 26.203125 -22.609375 L 16.515625 -22.609375 C 16.484375 -23.578125 16.1875 -24.304688 15.625 -24.796875 C 15.0625 -25.285156 14.34375 -25.53125 13.46875 -25.53125 C 12.800781 -25.53125 12.253906 -25.332031 11.828125 -24.9375 C 11.398438 -24.539062 11.1875 -23.976562 11.1875 -23.25 C 11.1875 -22.644531 11.421875 -22.117188 11.890625 -21.671875 C 12.367188 -21.234375 12.957031 -20.851562 13.65625 -20.53125 C 14.351562 -20.21875 15.382812 -19.820312 16.75 -19.34375 C 18.78125 -18.644531 20.453125 -17.953125 21.765625 -17.265625 C 23.085938 -16.585938 24.226562 -15.632812 25.1875 -14.40625 C 26.144531 -13.175781 26.625 -11.617188 26.625 -9.734375 C 26.625 -7.828125 26.144531 -6.113281 25.1875 -4.59375 C 24.226562 -3.082031 22.847656 -1.882812 21.046875 -1 C 19.242188 -0.125 17.113281 0.3125 14.65625 0.3125 Z M 14.65625 0.3125 "/></g></g></g><g fill="#000000" fill-opacity="1"><g transform="translate(279.074028, 312.422728)"><g><path d="M 11.46875 -24.9375 L 11.46875 -19.703125 L 21.703125 -19.703125 L 21.703125 -12.921875 L 11.46875 -12.921875 L 11.46875 -7.140625 L 23.0625 -7.140625 L 23.0625 0 L 2.546875 0 L 2.546875 -32.078125 L 23.0625 -32.078125 L 23.0625 -24.9375 Z M 11.46875 -24.9375 "/></g></g></g><g fill="#000000" fill-opacity="1"><g transform="translate(304.003768, 312.422728)"><g><path d="M 1.453125 -16.109375 C 1.453125 -19.265625 2.113281 -22.078125 3.4375 -24.546875 C 4.757812 -27.015625 6.628906 -28.9375 9.046875 -30.3125 C 11.472656 -31.695312 14.265625 -32.390625 17.421875 -32.390625 C 21.429688 -32.390625 24.800781 -31.320312 27.53125 -29.1875 C 30.257812 -27.050781 32.019531 -24.144531 32.8125 -20.46875 L 23.203125 -20.46875 C 22.628906 -21.6875 21.832031 -22.613281 20.8125 -23.25 C 19.800781 -23.882812 18.628906 -24.203125 17.296875 -24.203125 C 15.234375 -24.203125 13.585938 -23.46875 12.359375 -22 C 11.128906 -20.53125 10.515625 -18.566406 10.515625 -16.109375 C 10.515625 -13.617188 11.128906 -11.640625 12.359375 -10.171875 C 13.585938 -8.703125 15.234375 -7.96875 17.296875 -7.96875 C 18.628906 -7.96875 19.800781 -8.285156 20.8125 -8.921875 C 21.832031 -9.554688 22.628906 -10.476562 23.203125 -11.6875 L 32.8125 -11.6875 C 32.019531 -8.019531 30.257812 -5.113281 27.53125 -2.96875 C 24.800781 -0.832031 21.429688 0.234375 17.421875 0.234375 C 14.265625 0.234375 11.472656 -0.453125 9.046875 -1.828125 C 6.628906 -3.210938 4.757812 -5.140625 3.4375 -7.609375 C 2.113281 -10.085938 1.453125 -12.921875 1.453125 -16.109375 Z M 1.453125 -16.109375 "/></g></g></g><g fill="#000000" fill-opacity="1"><g transform="translate(338.486874, 312.422728)"><g><path d="M 11.28125 -32.078125 L 11.28125 -13.46875 C 11.28125 -11.738281 11.679688 -10.398438 12.484375 -9.453125 C 13.296875 -8.515625 14.519531 -8.046875 16.15625 -8.046875 C 17.789062 -8.046875 19.023438 -8.523438 19.859375 -9.484375 C 20.691406 -10.441406 21.109375 -11.769531 21.109375 -13.46875 L 21.109375 -32.078125 L 30.03125 -32.078125 L 30.03125 -13.46875 C 30.03125 -10.519531 29.40625 -8.007812 28.15625 -5.9375 C 26.914062 -3.863281 25.226562 -2.300781 23.09375 -1.25 C 20.957031 -0.207031 18.582031 0.3125 15.96875 0.3125 C 13.363281 0.3125 11.035156 -0.207031 8.984375 -1.25 C 6.941406 -2.300781 5.332031 -3.859375 4.15625 -5.921875 C 2.988281 -7.984375 2.40625 -10.5 2.40625 -13.46875 L 2.40625 -32.078125 Z M 11.28125 -32.078125 "/></g></g></g><g fill="#000000" fill-opacity="1"><g transform="translate(370.877337, 312.422728)"><g><path d="M 32.265625 0 L 23.34375 0 L 11.46875 -17.921875 L 11.46875 0 L 2.546875 0 L 2.546875 -32.078125 L 11.46875 -32.078125 L 23.34375 -13.921875 L 23.34375 -32.078125 L 32.265625 -32.078125 Z M 32.265625 0 "/></g></g></g><g fill="#000000" fill-opacity="1"><g transform="translate(405.678887, 312.422728)"><g><path d="M 15.25 -32.078125 C 18.613281 -32.078125 21.5625 -31.398438 24.09375 -30.046875 C 26.625 -28.703125 28.570312 -26.816406 29.9375 -24.390625 C 31.300781 -21.960938 31.984375 -19.1875 31.984375 -16.0625 C 31.984375 -12.96875 31.289062 -10.207031 29.90625 -7.78125 C 28.53125 -5.351562 26.578125 -3.445312 24.046875 -2.0625 C 21.515625 -0.6875 18.582031 0 15.25 0 L 2.546875 0 L 2.546875 -32.078125 Z M 14.5625 -7.875 C 17.164062 -7.875 19.210938 -8.585938 20.703125 -10.015625 C 22.191406 -11.441406 22.9375 -13.457031 22.9375 -16.0625 C 22.9375 -18.695312 22.191406 -20.734375 20.703125 -22.171875 C 19.210938 -23.617188 17.164062 -24.34375 14.5625 -24.34375 L 11.46875 -24.34375 L 11.46875 -7.875 Z M 14.5625 -7.875 "/></g></g></g><g fill="#000000" fill-opacity="1"><g transform="translate(439.115661, 312.422728)"><g><path d="M 22.84375 -5.234375 L 11.46875 -5.234375 L 9.734375 0 L 0.359375 0 L 12.0625 -32.078125 L 22.34375 -32.078125 L 33.984375 0 L 24.5625 0 Z M 20.609375 -12.0625 L 17.15625 -22.4375 L 13.734375 -12.0625 Z M 20.609375 -12.0625 "/></g></g></g><g fill="#000000" fill-opacity="1"><g transform="translate(473.462308, 312.422728)"><g><path d="M 18.796875 0 L 12.421875 -11.828125 L 11.46875 -11.828125 L 11.46875 0 L 2.546875 0 L 2.546875 -32.078125 L 16.609375 -32.078125 C 19.179688 -32.078125 21.363281 -31.628906 23.15625 -30.734375 C 24.945312 -29.835938 26.296875 -28.609375 27.203125 -27.046875 C 28.117188 -25.484375 28.578125 -23.734375 28.578125 -21.796875 C 28.578125 -19.609375 27.976562 -17.6875 26.78125 -16.03125 C 25.582031 -14.382812 23.828125 -13.210938 21.515625 -12.515625 L 28.75 0 Z M 11.46875 -17.921875 L 15.875 -17.921875 C 17.09375 -17.921875 18.003906 -18.207031 18.609375 -18.78125 C 19.210938 -19.363281 19.515625 -20.203125 19.515625 -21.296875 C 19.515625 -22.328125 19.203125 -23.132812 18.578125 -23.71875 C 17.960938 -24.3125 17.0625 -24.609375 15.875 -24.609375 L 11.46875 -24.609375 Z M 11.46875 -17.921875 "/></g></g></g><g fill="#000000" fill-opacity="1"><g transform="translate(503.532665, 312.422728)"><g><path d="M 11.46875 -32.078125 L 11.46875 0 L 2.546875 0 L 2.546875 -32.078125 Z M 11.46875 -32.078125 "/></g></g></g><g fill="#000000" fill-opacity="1"><g transform="translate(517.544261, 312.422728)"><g><path d="M 17.921875 0.3125 C 14.921875 0.3125 12.160156 -0.390625 9.640625 -1.796875 C 7.128906 -3.203125 5.132812 -5.15625 3.65625 -7.65625 C 2.1875 -10.164062 1.453125 -13 1.453125 -16.15625 C 1.453125 -19.3125 2.1875 -22.140625 3.65625 -24.640625 C 5.132812 -27.140625 7.128906 -29.085938 9.640625 -30.484375 C 12.160156 -31.878906 14.921875 -32.578125 17.921875 -32.578125 C 20.960938 -32.578125 23.734375 -31.878906 26.234375 -30.484375 C 28.734375 -29.085938 30.710938 -27.140625 32.171875 -24.640625 C 33.628906 -22.140625 34.359375 -19.3125 34.359375 -16.15625 C 34.359375 -13 33.628906 -10.164062 32.171875 -7.65625 C 30.710938 -5.15625 28.722656 -3.203125 26.203125 -1.796875 C 23.691406 -0.390625 20.929688 0.3125 17.921875 0.3125 Z M 17.921875 -7.96875 C 20.203125 -7.96875 22 -8.707031 23.3125 -10.1875 C 24.632812 -11.675781 25.296875 -13.664062 25.296875 -16.15625 C 25.296875 -18.695312 24.632812 -20.703125 23.3125 -22.171875 C 22 -23.648438 20.203125 -24.390625 17.921875 -24.390625 C 15.617188 -24.390625 13.816406 -23.648438 12.515625 -22.171875 C 11.210938 -20.703125 10.5625 -18.695312 10.5625 -16.15625 C 10.5625 -13.632812 11.210938 -11.640625 12.515625 -10.171875 C 13.816406 -8.703125 15.617188 -7.96875 17.921875 -7.96875 Z M 17.921875 -7.96875 "/></g></g></g><g fill="#000000" fill-opacity="1"><g transform="translate(97.054699, 557.467144)"><g><path d="M 14.65625 0.3125 C 10.914062 0.3125 7.847656 -0.570312 5.453125 -2.34375 C 3.054688 -4.113281 1.769531 -6.65625 1.59375 -9.96875 L 11.109375 -9.96875 C 11.191406 -8.84375 11.519531 -8.019531 12.09375 -7.5 C 12.675781 -6.988281 13.421875 -6.734375 14.328125 -6.734375 C 15.148438 -6.734375 15.828125 -6.9375 16.359375 -7.34375 C 16.890625 -7.757812 17.15625 -8.328125 17.15625 -9.046875 C 17.15625 -9.992188 16.710938 -10.722656 15.828125 -11.234375 C 14.953125 -11.753906 13.53125 -12.332031 11.5625 -12.96875 C 9.46875 -13.664062 7.773438 -14.335938 6.484375 -14.984375 C 5.191406 -15.640625 4.066406 -16.597656 3.109375 -17.859375 C 2.160156 -19.117188 1.6875 -20.765625 1.6875 -22.796875 C 1.6875 -24.859375 2.203125 -26.625 3.234375 -28.09375 C 4.265625 -29.5625 5.6875 -30.675781 7.5 -31.4375 C 9.320312 -32.195312 11.390625 -32.578125 13.703125 -32.578125 C 17.429688 -32.578125 20.410156 -31.703125 22.640625 -29.953125 C 24.867188 -28.210938 26.054688 -25.765625 26.203125 -22.609375 L 16.515625 -22.609375 C 16.484375 -23.578125 16.1875 -24.304688 15.625 -24.796875 C 15.0625 -25.285156 14.34375 -25.53125 13.46875 -25.53125 C 12.800781 -25.53125 12.253906 -25.332031 11.828125 -24.9375 C 11.398438 -24.539062 11.1875 -23.976562 11.1875 -23.25 C 11.1875 -22.644531 11.421875 -22.117188 11.890625 -21.671875 C 12.367188 -21.234375 12.957031 -20.851562 13.65625 -20.53125 C 14.351562 -20.21875 15.382812 -19.820312 16.75 -19.34375 C 18.78125 -18.644531 20.453125 -17.953125 21.765625 -17.265625 C 23.085938 -16.585938 24.226562 -15.632812 25.1875 -14.40625 C 26.144531 -13.175781 26.625 -11.617188 26.625 -9.734375 C 26.625 -7.828125 26.144531 -6.113281 25.1875 -4.59375 C 24.226562 -3.082031 22.847656 -1.882812 21.046875 -1 C 19.242188 -0.125 17.113281 0.3125 14.65625 0.3125 Z M 14.65625 0.3125 "/></g></g></g><g fill="#000000" fill-opacity="1"><g transform="translate(125.259886, 557.467144)"><g><path d="M 11.46875 -24.9375 L 11.46875 -19.703125 L 21.703125 -19.703125 L 21.703125 -12.921875 L 11.46875 -12.921875 L 11.46875 -7.140625 L 23.0625 -7.140625 L 23.0625 0 L 2.546875 0 L 2.546875 -32.078125 L 23.0625 -32.078125 L 23.0625 -24.9375 Z M 11.46875 -24.9375 "/></g></g></g><g fill="#000000" fill-opacity="1"><g transform="translate(150.189626, 557.467144)"><g><path d="M 1.453125 -16.109375 C 1.453125 -19.265625 2.113281 -22.078125 3.4375 -24.546875 C 4.757812 -27.015625 6.628906 -28.9375 9.046875 -30.3125 C 11.472656 -31.695312 14.265625 -32.390625 17.421875 -32.390625 C 21.429688 -32.390625 24.800781 -31.320312 27.53125 -29.1875 C 30.257812 -27.050781 32.019531 -24.144531 32.8125 -20.46875 L 23.203125 -20.46875 C 22.628906 -21.6875 21.832031 -22.613281 20.8125 -23.25 C 19.800781 -23.882812 18.628906 -24.203125 17.296875 -24.203125 C 15.234375 -24.203125 13.585938 -23.46875 12.359375 -22 C 11.128906 -20.53125 10.515625 -18.566406 10.515625 -16.109375 C 10.515625 -13.617188 11.128906 -11.640625 12.359375 -10.171875 C 13.585938 -8.703125 15.234375 -7.96875 17.296875 -7.96875 C 18.628906 -7.96875 19.800781 -8.285156 20.8125 -8.921875 C 21.832031 -9.554688 22.628906 -10.476562 23.203125 -11.6875 L 32.8125 -11.6875 C 32.019531 -8.019531 30.257812 -5.113281 27.53125 -2.96875 C 24.800781 -0.832031 21.429688 0.234375 17.421875 0.234375 C 14.265625 0.234375 11.472656 -0.453125 9.046875 -1.828125 C 6.628906 -3.210938 4.757812 -5.140625 3.4375 -7.609375 C 2.113281 -10.085938 1.453125 -12.921875 1.453125 -16.109375 Z M 1.453125 -16.109375 "/></g></g></g><g fill="#000000" fill-opacity="1"><g transform="translate(184.672733, 557.467144)"><g><path d="M 26.703125 -32.078125 L 26.703125 -24.984375 L 18.15625 -24.984375 L 18.15625 0 L 9.234375 0 L 9.234375 -24.984375 L 0.78125 -24.984375 L 0.78125 -32.078125 Z M 26.703125 -32.078125 "/></g></g></g><g fill="#000000" fill-opacity="1"><g transform="translate(212.150042, 557.467144)"><g><path d="M 17.921875 0.3125 C 14.921875 0.3125 12.160156 -0.390625 9.640625 -1.796875 C 7.128906 -3.203125 5.132812 -5.15625 3.65625 -7.65625 C 2.1875 -10.164062 1.453125 -13 1.453125 -16.15625 C 1.453125 -19.3125 2.1875 -22.140625 3.65625 -24.640625 C 5.132812 -27.140625 7.128906 -29.085938 9.640625 -30.484375 C 12.160156 -31.878906 14.921875 -32.578125 17.921875 -32.578125 C 20.960938 -32.578125 23.734375 -31.878906 26.234375 -30.484375 C 28.734375 -29.085938 30.710938 -27.140625 32.171875 -24.640625 C 33.628906 -22.140625 34.359375 -19.3125 34.359375 -16.15625 C 34.359375 -13 33.628906 -10.164062 32.171875 -7.65625 C 30.710938 -5.15625 28.722656 -3.203125 26.203125 -1.796875 C 23.691406 -0.390625 20.929688 0.3125 17.921875 0.3125 Z M 17.921875 -7.96875 C 20.203125 -7.96875 22 -8.707031 23.3125 -10.1875 C 24.632812 -11.675781 25.296875 -13.664062 25.296875 -16.15625 C 25.296875 -18.695312 24.632812 -20.703125 23.3125 -22.171875 C 22 -23.648438 20.203125 -24.390625 17.921875 -24.390625 C 15.617188 -24.390625 13.816406 -23.648438 12.515625 -22.171875 C 11.210938 -20.703125 10.5625 -18.695312 10.5625 -16.15625 C 10.5625 -13.632812 11.210938 -11.640625 12.515625 -10.171875 C 13.816406 -8.703125 15.617188 -7.96875 17.921875 -7.96875 Z M 17.921875 -7.96875 "/></g></g></g><g fill="#000000" fill-opacity="1"><g transform="translate(247.952423, 557.467144)"><g><path d="M 18.796875 0 L 12.421875 -11.828125 L 11.46875 -11.828125 L 11.46875 0 L 2.546875 0 L 2.546875 -32.078125 L 16.609375 -32.078125 C 19.179688 -32.078125 21.363281 -31.628906 23.15625 -30.734375 C 24.945312 -29.835938 26.296875 -28.609375 27.203125 -27.046875 C 28.117188 -25.484375 28.578125 -23.734375 28.578125 -21.796875 C 28.578125 -19.609375 27.976562 -17.6875 26.78125 -16.03125 C 25.582031 -14.382812 23.828125 -13.210938 21.515625 -12.515625 L 28.75 0 Z M 11.46875 -17.921875 L 15.875 -17.921875 C 17.09375 -17.921875 18.003906 -18.207031 18.609375 -18.78125 C 19.210938 -19.363281 19.515625 -20.203125 19.515625 -21.296875 C 19.515625 -22.328125 19.203125 -23.132812 18.578125 -23.71875 C 17.960938 -24.3125 17.0625 -24.609375 15.875 -24.609375 L 11.46875 -24.609375 Z M 11.46875 -17.921875 "/></g></g></g><g fill="#000000" fill-opacity="1"><g transform="translate(278.022791, 557.467144)"><g/></g></g><g fill="#000000" fill-opacity="1"><g transform="translate(286.711809, 557.467144)"><g><path d="M 26.703125 -32.078125 L 26.703125 -24.984375 L 18.15625 -24.984375 L 18.15625 0 L 9.234375 0 L 9.234375 -24.984375 L 0.78125 -24.984375 L 0.78125 -32.078125 Z M 26.703125 -32.078125 "/></g></g></g><g fill="#000000" fill-opacity="1"><g transform="translate(314.189118, 557.467144)"><g><path d="M 11.46875 -24.9375 L 11.46875 -19.703125 L 21.703125 -19.703125 L 21.703125 -12.921875 L 11.46875 -12.921875 L 11.46875 -7.140625 L 23.0625 -7.140625 L 23.0625 0 L 2.546875 0 L 2.546875 -32.078125 L 23.0625 -32.078125 L 23.0625 -24.9375 Z M 11.46875 -24.9375 "/></g></g></g><g fill="#000000" fill-opacity="1"><g transform="translate(339.118858, 557.467144)"><g><path d="M 18.796875 0 L 12.421875 -11.828125 L 11.46875 -11.828125 L 11.46875 0 L 2.546875 0 L 2.546875 -32.078125 L 16.609375 -32.078125 C 19.179688 -32.078125 21.363281 -31.628906 23.15625 -30.734375 C 24.945312 -29.835938 26.296875 -28.609375 27.203125 -27.046875 C 28.117188 -25.484375 28.578125 -23.734375 28.578125 -21.796875 C 28.578125 -19.609375 27.976562 -17.6875 26.78125 -16.03125 C 25.582031 -14.382812 23.828125 -13.210938 21.515625 -12.515625 L 28.75 0 Z M 11.46875 -17.921875 L 15.875 -17.921875 C 17.09375 -17.921875 18.003906 -18.207031 18.609375 -18.78125 C 19.210938 -19.363281 19.515625 -20.203125 19.515625 -21.296875 C 19.515625 -22.328125 19.203125 -23.132812 18.578125 -23.71875 C 17.960938 -24.3125 17.0625 -24.609375 15.875 -24.609375 L 11.46875 -24.609375 Z M 11.46875 -17.921875 "/></g></g></g><g fill="#000000" fill-opacity="1"><g transform="translate(369.189238, 557.467144)"><g><path d="M 1.453125 -16.109375 C 1.453125 -19.265625 2.113281 -22.078125 3.4375 -24.546875 C 4.757812 -27.015625 6.628906 -28.9375 9.046875 -30.3125 C 11.472656 -31.695312 14.265625 -32.390625 17.421875 -32.390625 C 21.429688 -32.390625 24.800781 -31.320312 27.53125 -29.1875 C 30.257812 -27.050781 32.019531 -24.144531 32.8125 -20.46875 L 23.203125 -20.46875 C 22.628906 -21.6875 21.832031 -22.613281 20.8125 -23.25 C 19.800781 -23.882812 18.628906 -24.203125 17.296875 -24.203125 C 15.234375 -24.203125 13.585938 -23.46875 12.359375 -22 C 11.128906 -20.53125 10.515625 -18.566406 10.515625 -16.109375 C 10.515625 -13.617188 11.128906 -11.640625 12.359375 -10.171875 C 13.585938 -8.703125 15.234375 -7.96875 17.296875 -7.96875 C 18.628906 -7.96875 19.800781 -8.285156 20.8125 -8.921875 C 21.832031 -9.554688 22.628906 -10.476562 23.203125 -11.6875 L 32.8125 -11.6875 C 32.019531 -8.019531 30.257812 -5.113281 27.53125 -2.96875 C 24.800781 -0.832031 21.429688 0.234375 17.421875 0.234375 C 14.265625 0.234375 11.472656 -0.453125 9.046875 -1.828125 C 6.628906 -3.210938 4.757812 -5.140625 3.4375 -7.609375 C 2.113281 -10.085938 1.453125 -12.921875 1.453125 -16.109375 Z M 1.453125 -16.109375 "/></g></g></g><g fill="#000000" fill-opacity="1"><g transform="translate(403.672345, 557.467144)"><g><path d="M 11.46875 -32.078125 L 11.46875 0 L 2.546875 0 L 2.546875 -32.078125 Z M 11.46875 -32.078125 "/></g></g></g><g fill="#000000" fill-opacity="1"><g transform="translate(417.683941, 557.467144)"><g><path d="M 22.84375 -5.234375 L 11.46875 -5.234375 L 9.734375 0 L 0.359375 0 L 12.0625 -32.078125 L 22.34375 -32.078125 L 33.984375 0 L 24.5625 0 Z M 20.609375 -12.0625 L 17.15625 -22.4375 L 13.734375 -12.0625 Z M 20.609375 -12.0625 "/></g></g></g><g fill="#000000" fill-opacity="1"><g transform="translate(452.030588, 557.467144)"><g><path d="M 18.796875 0 L 12.421875 -11.828125 L 11.46875 -11.828125 L 11.46875 0 L 2.546875 0 L 2.546875 -32.078125 L 16.609375 -32.078125 C 19.179688 -32.078125 21.363281 -31.628906 23.15625 -30.734375 C 24.945312 -29.835938 26.296875 -28.609375 27.203125 -27.046875 C 28.117188 -25.484375 28.578125 -23.734375 28.578125 -21.796875 C 28.578125 -19.609375 27.976562 -17.6875 26.78125 -16.03125 C 25.582031 -14.382812 23.828125 -13.210938 21.515625 -12.515625 L 28.75 0 Z M 11.46875 -17.921875 L 15.875 -17.921875 C 17.09375 -17.921875 18.003906 -18.207031 18.609375 -18.78125 C 19.210938 -19.363281 19.515625 -20.203125 19.515625 -21.296875 C 19.515625 -22.328125 19.203125 -23.132812 18.578125 -23.71875 C 17.960938 -24.3125 17.0625 -24.609375 15.875 -24.609375 L 11.46875 -24.609375 Z M 11.46875 -17.921875 "/></g></g></g><g fill="#000000" fill-opacity="1"><g transform="translate(482.100945, 557.467144)"><g><path d="M 11.46875 -32.078125 L 11.46875 0 L 2.546875 0 L 2.546875 -32.078125 Z M 11.46875 -32.078125 "/></g></g></g><g fill="#000000" fill-opacity="1"><g transform="translate(496.112541, 557.467144)"><g><path d="M 17.921875 0.3125 C 14.921875 0.3125 12.160156 -0.390625 9.640625 -1.796875 C 7.128906 -3.203125 5.132812 -5.15625 3.65625 -7.65625 C 2.1875 -10.164062 1.453125 -13 1.453125 -16.15625 C 1.453125 -19.3125 2.1875 -22.140625 3.65625 -24.640625 C 5.132812 -27.140625 7.128906 -29.085938 9.640625 -30.484375 C 12.160156 -31.878906 14.921875 -32.578125 17.921875 -32.578125 C 20.960938 -32.578125 23.734375 -31.878906 26.234375 -30.484375 C 28.734375 -29.085938 30.710938 -27.140625 32.171875 -24.640625 C 33.628906 -22.140625 34.359375 -19.3125 34.359375 -16.15625 C 34.359375 -13 33.628906 -10.164062 32.171875 -7.65625 C 30.710938 -5.15625 28.722656 -3.203125 26.203125 -1.796875 C 23.691406 -0.390625 20.929688 0.3125 17.921875 0.3125 Z M 17.921875 -7.96875 C 20.203125 -7.96875 22 -8.707031 23.3125 -10.1875 C 24.632812 -11.675781 25.296875 -13.664062 25.296875 -16.15625 C 25.296875 -18.695312 24.632812 -20.703125 23.3125 -22.171875 C 22 -23.648438 20.203125 -24.390625 17.921875 -24.390625 C 15.617188 -24.390625 13.816406 -23.648438 12.515625 -22.171875 C 11.210938 -20.703125 10.5625 -18.695312 10.5625 -16.15625 C 10.5625 -13.632812 11.210938 -11.640625 12.515625 -10.171875 C 13.816406 -8.703125 15.617188 -7.96875 17.921875 -7.96875 Z M 17.921875 -7.96875 "/></g></g></g><g clip-path="url(#92b58c5e5f)"><g clip-path="url(#e4484b96a0)"><path fill="#118f31" d="M 249.003906 100.644531 L 361.984375 100.644531 L 361.984375 213.625 L 249.003906 213.625 Z M 249.003906 100.644531 " fill-opacity="1" fill-rule="nonzero"/></g></g><g fill="#000000" fill-opacity="1"><g transform="translate(261.736952, 243.391875)"><g><path d="M 10.421875 -9.46875 C 10.421875 -8.351562 10.039062 -7.425781 9.28125 -6.6875 C 8.519531 -5.957031 7.359375 -5.59375 5.796875 -5.59375 L 3.21875 -5.59375 L 3.21875 0 L 1.484375 0 L 1.484375 -13.390625 L 5.796875 -13.390625 C 7.304688 -13.390625 8.453125 -13.023438 9.234375 -12.296875 C 10.023438 -11.566406 10.421875 -10.625 10.421875 -9.46875 Z M 5.796875 -7.03125 C 6.773438 -7.03125 7.492188 -7.238281 7.953125 -7.65625 C 8.410156 -8.082031 8.640625 -8.6875 8.640625 -9.46875 C 8.640625 -11.113281 7.691406 -11.9375 5.796875 -11.9375 L 3.21875 -11.9375 L 3.21875 -7.03125 Z M 5.796875 -7.03125 "/></g></g></g><g fill="#000000" fill-opacity="1"><g transform="translate(272.85534, 243.391875)"><g><path d="M 8.53125 0 L 5.34375 -5.46875 L 3.21875 -5.46875 L 3.21875 0 L 1.484375 0 L 1.484375 -13.390625 L 5.796875 -13.390625 C 6.804688 -13.390625 7.660156 -13.210938 8.359375 -12.859375 C 9.054688 -12.515625 9.578125 -12.046875 9.921875 -11.453125 C 10.273438 -10.867188 10.453125 -10.203125 10.453125 -9.453125 C 10.453125 -8.523438 10.1875 -7.707031 9.65625 -7 C 9.125 -6.300781 8.328125 -5.835938 7.265625 -5.609375 L 10.625 0 Z M 3.21875 -6.875 L 5.796875 -6.875 C 6.742188 -6.875 7.453125 -7.109375 7.921875 -7.578125 C 8.398438 -8.046875 8.640625 -8.671875 8.640625 -9.453125 C 8.640625 -10.242188 8.40625 -10.851562 7.9375 -11.28125 C 7.46875 -11.71875 6.753906 -11.9375 5.796875 -11.9375 L 3.21875 -11.9375 Z M 3.21875 -6.875 "/></g></g></g><g fill="#000000" fill-opacity="1"><g transform="translate(284.530616, 243.391875)"><g><path d="M 3.21875 -13.390625 L 3.21875 0 L 1.484375 0 L 1.484375 -13.390625 Z M 3.21875 -13.390625 "/></g></g></g><g fill="#000000" fill-opacity="1"><g transform="translate(289.254503, 243.391875)"><g><path d="M 15.0625 -13.28125 L 15.0625 0 L 13.3125 0 L 13.3125 -9.90625 L 8.890625 0 L 7.65625 0 L 3.21875 -9.921875 L 3.21875 0 L 1.484375 0 L 1.484375 -13.28125 L 3.359375 -13.28125 L 8.28125 -2.296875 L 13.1875 -13.28125 Z M 15.0625 -13.28125 "/></g></g></g><g fill="#000000" fill-opacity="1"><g transform="translate(305.788083, 243.391875)"><g><path d="M 9.390625 -2.96875 L 3.546875 -2.96875 L 2.484375 0 L 0.640625 0 L 5.46875 -13.3125 L 7.484375 -13.3125 L 12.3125 0 L 10.46875 0 Z M 8.890625 -4.390625 L 6.46875 -11.15625 L 4.046875 -4.390625 Z M 8.890625 -4.390625 "/></g></g></g><g fill="#000000" fill-opacity="1"><g transform="translate(318.730744, 243.391875)"><g><path d="M 8.53125 0 L 5.34375 -5.46875 L 3.21875 -5.46875 L 3.21875 0 L 1.484375 0 L 1.484375 -13.390625 L 5.796875 -13.390625 C 6.804688 -13.390625 7.660156 -13.210938 8.359375 -12.859375 C 9.054688 -12.515625 9.578125 -12.046875 9.921875 -11.453125 C 10.273438 -10.867188 10.453125 -10.203125 10.453125 -9.453125 C 10.453125 -8.523438 10.1875 -7.707031 9.65625 -7 C 9.125 -6.300781 8.328125 -5.835938 7.265625 -5.609375 L 10.625 0 Z M 3.21875 -6.875 L 5.796875 -6.875 C 6.742188 -6.875 7.453125 -7.109375 7.921875 -7.578125 C 8.398438 -8.046875 8.640625 -8.671875 8.640625 -9.453125 C 8.640625 -10.242188 8.40625 -10.851562 7.9375 -11.28125 C 7.46875 -11.71875 6.753906 -11.9375 5.796875 -11.9375 L 3.21875 -11.9375 Z M 3.21875 -6.875 "/></g></g></g><g fill="#000000" fill-opacity="1"><g transform="translate(330.40602, 243.391875)"><g><path d="M 3.21875 -13.390625 L 3.21875 0 L 1.484375 0 L 1.484375 -13.390625 Z M 3.21875 -13.390625 "/></g></g></g><g fill="#000000" fill-opacity="1"><g transform="translate(335.129907, 243.391875)"><g><path d="M 7.546875 0.140625 C 6.304688 0.140625 5.171875 -0.148438 4.140625 -0.734375 C 3.117188 -1.316406 2.3125 -2.128906 1.71875 -3.171875 C 1.125 -4.222656 0.828125 -5.398438 0.828125 -6.703125 C 0.828125 -8.003906 1.125 -9.175781 1.71875 -10.21875 C 2.3125 -11.269531 3.117188 -12.082031 4.140625 -12.65625 C 5.171875 -13.238281 6.304688 -13.53125 7.546875 -13.53125 C 8.796875 -13.53125 9.929688 -13.238281 10.953125 -12.65625 C 11.984375 -12.082031 12.789062 -11.273438 13.375 -10.234375 C 13.96875 -9.203125 14.265625 -8.023438 14.265625 -6.703125 C 14.265625 -5.378906 13.96875 -4.195312 13.375 -3.15625 C 12.789062 -2.125 11.984375 -1.316406 10.953125 -0.734375 C 9.929688 -0.148438 8.796875 0.140625 7.546875 0.140625 Z M 7.546875 -1.375 C 8.484375 -1.375 9.328125 -1.59375 10.078125 -2.03125 C 10.828125 -2.46875 11.414062 -3.085938 11.84375 -3.890625 C 12.269531 -4.703125 12.484375 -5.640625 12.484375 -6.703125 C 12.484375 -7.773438 12.269531 -8.710938 11.84375 -9.515625 C 11.414062 -10.316406 10.828125 -10.929688 10.078125 -11.359375 C 9.335938 -11.796875 8.492188 -12.015625 7.546875 -12.015625 C 6.597656 -12.015625 5.75 -11.796875 5 -11.359375 C 4.257812 -10.929688 3.675781 -10.316406 3.25 -9.515625 C 2.820312 -8.710938 2.609375 -7.773438 2.609375 -6.703125 C 2.609375 -5.640625 2.820312 -4.703125 3.25 -3.890625 C 3.675781 -3.085938 4.265625 -2.46875 5.015625 -2.03125 C 5.765625 -1.59375 6.609375 -1.375 7.546875 -1.375 Z M 7.546875 -1.375 "/></g></g></g><g clip-path="url(#5d2f52a881)"><path fill="#ffffff" d="M 345.386719 149.054688 C 340.484375 147.613281 335.371094 146.492188 330.289062 146.15625 C 321.953125 145.605469 301.761719 152.671875 298.214844 151.589844 C 288.523438 148.636719 270.167969 148.398438 262.53125 148.324219 C 261.785156 148.316406 258.675781 147.664062 258.003906 147.636719 C 265.566406 161.773438 281.371094 177.109375 302.085938 178.625 C 305.113281 178.84375 310.359375 178.851562 316.925781 177.296875 C 334.9375 173.03125 345.363281 159.613281 350.175781 150.539062 C 349.328125 150.277344 346.175781 149.289062 345.386719 149.054688 Z M 289.894531 173.734375 C 283.425781 169.492188 277.363281 164.625 271.152344 159.992188 C 270.871094 159.785156 270.691406 159.4375 270.453125 159.132812 C 277.109375 157.261719 296.160156 168.28125 299.832031 176.9375 C 296.003906 175.761719 292.496094 175.441406 289.894531 173.734375 Z M 307.824219 172.910156 C 297.761719 162.023438 285.644531 154.863281 270.746094 152.886719 C 270.253906 152.824219 269.769531 152.683594 269.292969 152.546875 C 269.21875 152.523438 269.195312 152.324219 269.148438 152.207031 C 285.3125 148.460938 305.71875 157.511719 317.996094 174.296875 C 312.652344 177.171875 311.515625 176.898438 307.824219 172.910156 Z M 338.011719 160.367188 C 334.136719 162.445312 330.167969 164.363281 326.394531 166.609375 C 321.648438 169.433594 321.714844 169.546875 318.453125 164.414062 C 325.351562 160.230469 332.472656 158.066406 340.59375 158.875 C 339.734375 159.375 338.886719 159.898438 338.011719 160.367188 Z M 341.5625 152.851562 C 332.832031 152.316406 324.4375 154.082031 316.609375 157.648438 C 312.222656 159.652344 309.535156 158.425781 306.230469 154.8125 C 319.15625 148.679688 344.945312 152.519531 344.972656 152.859375 C 343.835938 152.859375 342.695312 152.921875 341.5625 152.851562 Z M 341.5625 152.851562 " fill-opacity="1" fill-rule="nonzero"/></g><path fill="#ffffff" d="M 298.238281 135.3125 C 297.402344 135.273438 296.570312 135.140625 295.699219 135.046875 C 295.71875 134.855469 295.734375 134.707031 295.75 134.5625 C 295.839844 133.738281 295.933594 132.910156 296.015625 132.085938 C 296.027344 131.976562 295.996094 131.777344 295.953125 131.769531 C 295.617188 131.699219 295.765625 131.445312 295.808594 131.320312 C 295.867188 131.164062 296.019531 131.015625 296.167969 130.933594 C 296.300781 130.859375 296.480469 130.878906 296.640625 130.859375 C 296.667969 130.582031 296.699219 130.320312 296.726562 130.058594 C 295.816406 129.847656 294.9375 130.4375 294.929688 131.304688 C 294.929688 131.449219 294.738281 131.59375 294.632812 131.738281 C 294.597656 131.71875 294.5625 131.699219 294.527344 131.683594 C 294.425781 132.601562 294.308594 133.519531 294.234375 134.4375 C 294.207031 134.804688 294.085938 134.882812 293.730469 134.84375 C 291.433594 134.578125 289.128906 134.328125 286.828125 134.089844 C 286.539062 134.0625 286.242188 134.125 285.945312 134.132812 C 285.855469 134.132812 285.730469 134.109375 285.675781 134.050781 C 285.347656 133.695312 285.035156 133.328125 284.664062 132.902344 C 284.914062 132.738281 285.085938 132.644531 285.230469 132.523438 C 285.46875 132.320312 285.523438 132.050781 285.332031 131.800781 C 285.128906 131.53125 284.835938 131.503906 284.574219 131.707031 C 283.875 132.246094 283.183594 132.800781 282.503906 133.367188 C 282.253906 133.578125 282.207031 133.863281 282.4375 134.125 C 282.664062 134.382812 282.9375 134.378906 283.191406 134.164062 C 283.335938 134.042969 283.449219 133.886719 283.589844 133.738281 C 284.203125 134.5 284.742188 135.164062 285.277344 135.835938 C 285.332031 135.90625 285.382812 136.007812 285.375 136.089844 C 285.285156 137.007812 285.183594 137.921875 285.078125 138.882812 C 284.59375 138.828125 284.164062 138.792969 283.738281 138.730469 C 283.648438 138.714844 283.542969 138.625 283.503906 138.542969 C 283.238281 137.984375 282.992188 137.414062 282.726562 136.855469 C 282.511719 136.40625 282.328125 135.925781 282.039062 135.523438 C 280.660156 133.605469 278.757812 132.660156 276.402344 132.605469 C 274.535156 132.5625 272.90625 133.632812 272.222656 135.308594 C 272.105469 135.597656 271.957031 135.910156 271.730469 136.117188 C 269.828125 137.851562 268.957031 139.992188 269.1875 142.558594 C 269.488281 145.921875 272.117188 148.726562 275.4375 149.269531 C 278.984375 149.847656 282.457031 147.863281 283.730469 144.523438 C 283.835938 144.25 283.957031 144.191406 284.238281 144.226562 C 286.222656 144.457031 288.207031 144.667969 290.191406 144.886719 C 291.753906 145.054688 293.320312 145.226562 294.882812 145.394531 C 294.917969 145.4375 294.953125 145.484375 294.988281 145.527344 C 294.875 145.632812 294.777344 145.789062 294.640625 145.835938 C 293.492188 146.234375 292.773438 147.003906 292.515625 148.199219 C 292.265625 149.363281 292.796875 150.632812 293.816406 151.328125 C 294.789062 151.996094 296.230469 152 297.199219 151.335938 C 299.089844 150.046875 299.054688 147.417969 297.136719 146.167969 C 297.039062 146.105469 296.914062 145.972656 296.917969 145.878906 C 296.929688 145.503906 296.988281 145.132812 297.03125 144.726562 C 297.253906 144.75 297.414062 144.769531 297.574219 144.785156 C 298.535156 144.890625 298.777344 144.695312 298.886719 143.71875 C 299.128906 141.488281 299.34375 139.25 299.628906 137.023438 C 299.742188 136.109375 299.171875 135.355469 298.238281 135.3125 Z M 276.339844 146.082031 C 273.960938 146.042969 272.058594 144.085938 272.097656 141.703125 C 272.136719 139.324219 274.09375 137.425781 276.472656 137.464844 C 278.851562 137.5 280.75 139.460938 280.714844 141.839844 C 280.675781 144.21875 278.71875 146.117188 276.339844 146.082031 Z M 297.089844 148.664062 C 297.078125 149.539062 296.359375 150.234375 295.488281 150.21875 C 294.617188 150.207031 293.921875 149.488281 293.933594 148.617188 C 293.949219 147.746094 294.667969 147.050781 295.539062 147.0625 C 296.410156 147.078125 297.105469 147.792969 297.089844 148.664062 Z M 297.089844 148.664062 " fill-opacity="1" fill-rule="nonzero"/><g clip-path="url(#8af04f8d2f)"><g clip-path="url(#ae1d40649a)"><path fill="#118f31" d="M 250.015625 345.371094 L 362.996094 345.371094 L 362.996094 458.351562 L 250.015625 458.351562 Z M 250.015625 345.371094 " fill-opacity="1" fill-rule="nonzero"/></g></g><g fill="#000000" fill-opacity="1"><g transform="translate(249.754105, 488.436296)"><g><path d="M 5.71875 0.140625 C 4.832031 0.140625 4.039062 -0.015625 3.34375 -0.328125 C 2.644531 -0.648438 2.097656 -1.085938 1.703125 -1.640625 C 1.304688 -2.203125 1.101562 -2.847656 1.09375 -3.578125 L 2.953125 -3.578125 C 3.015625 -2.941406 3.273438 -2.410156 3.734375 -1.984375 C 4.191406 -1.554688 4.851562 -1.34375 5.71875 -1.34375 C 6.550781 -1.34375 7.207031 -1.550781 7.6875 -1.96875 C 8.164062 -2.382812 8.40625 -2.921875 8.40625 -3.578125 C 8.40625 -4.085938 8.265625 -4.5 7.984375 -4.8125 C 7.703125 -5.132812 7.347656 -5.378906 6.921875 -5.546875 C 6.503906 -5.710938 5.9375 -5.894531 5.21875 -6.09375 C 4.332031 -6.320312 3.625 -6.550781 3.09375 -6.78125 C 2.5625 -7.007812 2.109375 -7.367188 1.734375 -7.859375 C 1.359375 -8.359375 1.171875 -9.019531 1.171875 -9.84375 C 1.171875 -10.582031 1.351562 -11.234375 1.71875 -11.796875 C 2.09375 -12.359375 2.613281 -12.789062 3.28125 -13.09375 C 3.957031 -13.40625 4.734375 -13.5625 5.609375 -13.5625 C 6.859375 -13.5625 7.882812 -13.242188 8.6875 -12.609375 C 9.488281 -11.984375 9.941406 -11.15625 10.046875 -10.125 L 8.125 -10.125 C 8.0625 -10.632812 7.789062 -11.082031 7.3125 -11.46875 C 6.84375 -11.863281 6.21875 -12.0625 5.4375 -12.0625 C 4.707031 -12.0625 4.109375 -11.867188 3.640625 -11.484375 C 3.179688 -11.109375 2.953125 -10.582031 2.953125 -9.90625 C 2.953125 -9.414062 3.085938 -9.015625 3.359375 -8.703125 C 3.640625 -8.398438 3.984375 -8.171875 4.390625 -8.015625 C 4.796875 -7.859375 5.363281 -7.675781 6.09375 -7.46875 C 6.96875 -7.226562 7.675781 -6.988281 8.21875 -6.75 C 8.757812 -6.507812 9.21875 -6.144531 9.59375 -5.65625 C 9.976562 -5.164062 10.171875 -4.5 10.171875 -3.65625 C 10.171875 -3 10 -2.378906 9.65625 -1.796875 C 9.3125 -1.222656 8.800781 -0.753906 8.125 -0.390625 C 7.445312 -0.0351562 6.644531 0.140625 5.71875 0.140625 Z M 5.71875 0.140625 "/></g></g></g><g fill="#000000" fill-opacity="1"><g transform="translate(261.026128, 488.436296)"><g><path d="M 3.21875 -11.96875 L 3.21875 -7.484375 L 8.109375 -7.484375 L 8.109375 -6.046875 L 3.21875 -6.046875 L 3.21875 -1.4375 L 8.6875 -1.4375 L 8.6875 0 L 1.484375 0 L 1.484375 -13.40625 L 8.6875 -13.40625 L 8.6875 -11.96875 Z M 3.21875 -11.96875 "/></g></g></g><g fill="#000000" fill-opacity="1"><g transform="translate(270.877131, 488.436296)"><g><path d="M 0.828125 -6.703125 C 0.828125 -8.003906 1.117188 -9.175781 1.703125 -10.21875 C 2.296875 -11.269531 3.097656 -12.085938 4.109375 -12.671875 C 5.128906 -13.265625 6.265625 -13.5625 7.515625 -13.5625 C 8.972656 -13.5625 10.242188 -13.207031 11.328125 -12.5 C 12.421875 -11.789062 13.21875 -10.789062 13.71875 -9.5 L 11.625 -9.5 C 11.25 -10.3125 10.710938 -10.929688 10.015625 -11.359375 C 9.316406 -11.796875 8.484375 -12.015625 7.515625 -12.015625 C 6.578125 -12.015625 5.734375 -11.796875 4.984375 -11.359375 C 4.242188 -10.929688 3.660156 -10.316406 3.234375 -9.515625 C 2.816406 -8.710938 2.609375 -7.773438 2.609375 -6.703125 C 2.609375 -5.640625 2.816406 -4.707031 3.234375 -3.90625 C 3.660156 -3.101562 4.242188 -2.484375 4.984375 -2.046875 C 5.734375 -1.617188 6.578125 -1.40625 7.515625 -1.40625 C 8.484375 -1.40625 9.316406 -1.617188 10.015625 -2.046875 C 10.710938 -2.472656 11.25 -3.085938 11.625 -3.890625 L 13.71875 -3.890625 C 13.21875 -2.617188 12.421875 -1.632812 11.328125 -0.9375 C 10.242188 -0.238281 8.972656 0.109375 7.515625 0.109375 C 6.265625 0.109375 5.128906 -0.175781 4.109375 -0.75 C 3.097656 -1.332031 2.296875 -2.144531 1.703125 -3.1875 C 1.117188 -4.226562 0.828125 -5.398438 0.828125 -6.703125 Z M 0.828125 -6.703125 "/></g></g></g><g fill="#000000" fill-opacity="1"><g transform="translate(285.701664, 488.436296)"><g><path d="M 3.1875 -13.390625 L 3.1875 -4.921875 C 3.1875 -3.722656 3.476562 -2.835938 4.0625 -2.265625 C 4.644531 -1.691406 5.453125 -1.40625 6.484375 -1.40625 C 7.515625 -1.40625 8.320312 -1.691406 8.90625 -2.265625 C 9.488281 -2.835938 9.78125 -3.722656 9.78125 -4.921875 L 9.78125 -13.390625 L 11.515625 -13.390625 L 11.515625 -4.9375 C 11.515625 -3.820312 11.289062 -2.882812 10.84375 -2.125 C 10.394531 -1.363281 9.789062 -0.796875 9.03125 -0.421875 C 8.269531 -0.046875 7.414062 0.140625 6.46875 0.140625 C 5.519531 0.140625 4.664062 -0.046875 3.90625 -0.421875 C 3.144531 -0.796875 2.539062 -1.363281 2.09375 -2.125 C 1.65625 -2.882812 1.4375 -3.820312 1.4375 -4.9375 L 1.4375 -13.390625 Z M 3.1875 -13.390625 "/></g></g></g><g fill="#000000" fill-opacity="1"><g transform="translate(298.663517, 488.436296)"><g><path d="M 12 0 L 10.25 0 L 3.21875 -10.65625 L 3.21875 0 L 1.484375 0 L 1.484375 -13.40625 L 3.21875 -13.40625 L 10.25 -2.765625 L 10.25 -13.40625 L 12 -13.40625 Z M 12 0 "/></g></g></g><g fill="#000000" fill-opacity="1"><g transform="translate(312.163065, 488.436296)"><g><path d="M 5.640625 -13.390625 C 7.097656 -13.390625 8.363281 -13.113281 9.4375 -12.5625 C 10.507812 -12.019531 11.328125 -11.242188 11.890625 -10.234375 C 12.460938 -9.222656 12.75 -8.03125 12.75 -6.65625 C 12.75 -5.289062 12.460938 -4.101562 11.890625 -3.09375 C 11.328125 -2.09375 10.507812 -1.328125 9.4375 -0.796875 C 8.363281 -0.265625 7.097656 0 5.640625 0 L 1.484375 0 L 1.484375 -13.390625 Z M 5.640625 -1.4375 C 7.367188 -1.4375 8.6875 -1.894531 9.59375 -2.8125 C 10.507812 -3.726562 10.96875 -5.007812 10.96875 -6.65625 C 10.96875 -8.320312 10.507812 -9.625 9.59375 -10.5625 C 8.675781 -11.5 7.359375 -11.96875 5.640625 -11.96875 L 3.21875 -11.96875 L 3.21875 -1.4375 Z M 5.640625 -1.4375 "/></g></g></g><g fill="#000000" fill-opacity="1"><g transform="translate(325.739406, 488.436296)"><g><path d="M 9.390625 -2.96875 L 3.546875 -2.96875 L 2.484375 0 L 0.640625 0 L 5.46875 -13.3125 L 7.484375 -13.3125 L 12.3125 0 L 10.46875 0 Z M 8.890625 -4.390625 L 6.46875 -11.15625 L 4.046875 -4.390625 Z M 8.890625 -4.390625 "/></g></g></g><g fill="#000000" fill-opacity="1"><g transform="translate(338.682067, 488.436296)"><g><path d="M 8.53125 0 L 5.34375 -5.46875 L 3.21875 -5.46875 L 3.21875 0 L 1.484375 0 L 1.484375 -13.390625 L 5.796875 -13.390625 C 6.804688 -13.390625 7.660156 -13.210938 8.359375 -12.859375 C 9.054688 -12.515625 9.578125 -12.046875 9.921875 -11.453125 C 10.273438 -10.867188 10.453125 -10.203125 10.453125 -9.453125 C 10.453125 -8.523438 10.1875 -7.707031 9.65625 -7 C 9.125 -6.300781 8.328125 -5.835938 7.265625 -5.609375 L 10.625 0 Z M 3.21875 -6.875 L 5.796875 -6.875 C 6.742188 -6.875 7.453125 -7.109375 7.921875 -7.578125 C 8.398438 -8.046875 8.640625 -8.671875 8.640625 -9.453125 C 8.640625 -10.242188 8.40625 -10.851562 7.9375 -11.28125 C 7.46875 -11.71875 6.753906 -11.9375 5.796875 -11.9375 L 3.21875 -11.9375 Z M 3.21875 -6.875 "/></g></g></g><g fill="#000000" fill-opacity="1"><g transform="translate(350.357342, 488.436296)"><g><path d="M 3.21875 -13.390625 L 3.21875 0 L 1.484375 0 L 1.484375 -13.390625 Z M 3.21875 -13.390625 "/></g></g></g><g fill="#000000" fill-opacity="1"><g transform="translate(355.08123, 488.436296)"><g><path d="M 7.546875 0.140625 C 6.304688 0.140625 5.171875 -0.148438 4.140625 -0.734375 C 3.117188 -1.316406 2.3125 -2.128906 1.71875 -3.171875 C 1.125 -4.222656 0.828125 -5.398438 0.828125 -6.703125 C 0.828125 -8.003906 1.125 -9.175781 1.71875 -10.21875 C 2.3125 -11.269531 3.117188 -12.082031 4.140625 -12.65625 C 5.171875 -13.238281 6.304688 -13.53125 7.546875 -13.53125 C 8.796875 -13.53125 9.929688 -13.238281 10.953125 -12.65625 C 11.984375 -12.082031 12.789062 -11.273438 13.375 -10.234375 C 13.96875 -9.203125 14.265625 -8.023438 14.265625 -6.703125 C 14.265625 -5.378906 13.96875 -4.195312 13.375 -3.15625 C 12.789062 -2.125 11.984375 -1.316406 10.953125 -0.734375 C 9.929688 -0.148438 8.796875 0.140625 7.546875 0.140625 Z M 7.546875 -1.375 C 8.484375 -1.375 9.328125 -1.59375 10.078125 -2.03125 C 10.828125 -2.46875 11.414062 -3.085938 11.84375 -3.890625 C 12.269531 -4.703125 12.484375 -5.640625 12.484375 -6.703125 C 12.484375 -7.773438 12.269531 -8.710938 11.84375 -9.515625 C 11.414062 -10.316406 10.828125 -10.929688 10.078125 -11.359375 C 9.335938 -11.796875 8.492188 -12.015625 7.546875 -12.015625 C 6.597656 -12.015625 5.75 -11.796875 5 -11.359375 C 4.257812 -10.929688 3.675781 -10.316406 3.25 -9.515625 C 2.820312 -8.710938 2.609375 -7.773438 2.609375 -6.703125 C 2.609375 -5.640625 2.820312 -4.703125 3.25 -3.890625 C 3.675781 -3.085938 4.265625 -2.46875 5.015625 -2.03125 C 5.765625 -1.59375 6.609375 -1.375 7.546875 -1.375 Z M 7.546875 -1.375 "/></g></g></g><g clip-path="url(#bfbc777e17)"><path fill="#ffffff" d="M 334.738281 415.078125 L 333.847656 415.078125 C 333.359375 415.078125 332.917969 414.9375 332.523438 414.65625 C 332.128906 414.371094 331.851562 414 331.695312 413.539062 C 331.449219 412.820312 331.160156 412.125 330.824219 411.445312 C 330.609375 411.007812 330.542969 410.546875 330.621094 410.066406 C 330.699219 409.585938 330.914062 409.171875 331.257812 408.828125 L 331.886719 408.199219 C 332.101562 407.984375 332.265625 407.738281 332.382812 407.460938 C 332.496094 407.179688 332.554688 406.890625 332.554688 406.589844 C 332.554688 406.285156 332.496094 405.996094 332.382812 405.714844 C 332.265625 405.4375 332.101562 405.191406 331.886719 404.976562 L 331.691406 404.777344 C 329.917969 407.289062 327.914062 409.601562 325.679688 411.710938 C 326.445312 412.773438 327.027344 413.925781 327.429688 415.171875 C 327.832031 416.417969 328.03125 417.695312 328.027344 419.003906 C 328.027344 425.910156 322.429688 431.511719 315.523438 431.511719 C 314.355469 431.511719 313.207031 431.351562 312.085938 431.027344 C 310.960938 430.707031 309.902344 430.238281 308.910156 429.621094 C 307.917969 429.003906 307.03125 428.261719 306.246094 427.394531 C 305.460938 426.527344 304.8125 425.570312 304.296875 424.519531 C 302.902344 425.042969 301.457031 425.539062 299.957031 426.011719 C 300.042969 426.199219 300.128906 426.386719 300.222656 426.570312 C 300.4375 427.007812 300.503906 427.464844 300.425781 427.945312 C 300.347656 428.429688 300.132812 428.839844 299.789062 429.183594 L 299.160156 429.816406 C 298.945312 430.027344 298.78125 430.273438 298.664062 430.554688 C 298.550781 430.832031 298.492188 431.125 298.492188 431.425781 C 298.492188 431.726562 298.550781 432.019531 298.664062 432.296875 C 298.78125 432.574219 298.945312 432.820312 299.160156 433.035156 L 301.492188 435.371094 C 301.707031 435.585938 301.953125 435.75 302.234375 435.863281 C 302.511719 435.980469 302.800781 436.039062 303.105469 436.039062 C 303.40625 436.039062 303.695312 435.980469 303.976562 435.863281 C 304.253906 435.75 304.5 435.585938 304.714844 435.371094 L 305.34375 434.742188 C 305.6875 434.394531 306.101562 434.183594 306.582031 434.105469 C 307.0625 434.023438 307.523438 434.09375 307.960938 434.308594 C 308.640625 434.644531 309.339844 434.933594 310.058594 435.175781 C 310.519531 435.335938 310.890625 435.613281 311.171875 436.007812 C 311.457031 436.402344 311.597656 436.84375 311.59375 437.332031 L 311.59375 438.21875 C 311.59375 438.523438 311.652344 438.8125 311.769531 439.09375 C 311.882812 439.371094 312.046875 439.617188 312.261719 439.832031 C 312.476562 440.042969 312.722656 440.207031 313 440.324219 C 313.28125 440.441406 313.570312 440.496094 313.871094 440.496094 L 317.175781 440.496094 C 317.476562 440.496094 317.769531 440.441406 318.046875 440.324219 C 318.324219 440.207031 318.570312 440.042969 318.785156 439.832031 C 319 439.617188 319.164062 439.371094 319.277344 439.089844 C 319.394531 438.8125 319.453125 438.523438 319.453125 438.21875 L 319.453125 437.332031 C 319.453125 436.84375 319.59375 436.402344 319.875 436.007812 C 320.15625 435.609375 320.53125 435.335938 320.992188 435.175781 C 321.707031 434.933594 322.40625 434.644531 323.085938 434.308594 C 323.523438 434.09375 323.980469 434.023438 324.460938 434.105469 C 324.941406 434.183594 325.355469 434.394531 325.699219 434.742188 L 326.332031 435.371094 C 326.542969 435.582031 326.789062 435.75 327.070312 435.863281 C 327.347656 435.980469 327.636719 436.039062 327.941406 436.039062 C 328.242188 436.039062 328.53125 435.980469 328.8125 435.863281 C 329.089844 435.75 329.335938 435.582031 329.550781 435.371094 L 331.886719 433.035156 C 332.097656 432.820312 332.265625 432.574219 332.378906 432.296875 C 332.496094 432.015625 332.554688 431.726562 332.554688 431.425781 C 332.554688 431.121094 332.496094 430.832031 332.378906 430.554688 C 332.265625 430.273438 332.097656 430.027344 331.886719 429.8125 L 331.257812 429.183594 C 330.910156 428.839844 330.699219 428.429688 330.621094 427.949219 C 330.539062 427.464844 330.605469 427.007812 330.824219 426.570312 C 331.160156 425.890625 331.449219 425.191406 331.691406 424.472656 C 331.847656 424.011719 332.125 423.640625 332.519531 423.359375 C 332.917969 423.074219 333.359375 422.933594 333.84375 422.933594 L 334.734375 422.933594 C 335.035156 422.933594 335.328125 422.878906 335.605469 422.761719 C 335.886719 422.644531 336.132812 422.480469 336.34375 422.269531 C 336.558594 422.054688 336.722656 421.808594 336.839844 421.53125 C 336.953125 421.25 337.011719 420.960938 337.011719 420.660156 L 337.011719 417.355469 C 337.011719 417.054688 336.953125 416.765625 336.839844 416.484375 C 336.722656 416.207031 336.558594 415.960938 336.34375 415.746094 C 336.132812 415.535156 335.886719 415.367188 335.609375 415.253906 C 335.328125 415.136719 335.039062 415.078125 334.738281 415.078125 Z M 334.738281 415.078125 " fill-opacity="1" fill-rule="nonzero"/></g><g clip-path="url(#5efb5c43bd)"><path fill="#ffffff" d="M 297.199219 422.933594 L 296.308594 422.933594 C 296.007812 422.933594 295.714844 422.875 295.4375 422.761719 C 295.15625 422.644531 294.910156 422.480469 294.699219 422.265625 C 294.484375 422.054688 294.320312 421.804688 294.203125 421.527344 C 294.089844 421.25 294.03125 420.957031 294.03125 420.65625 L 294.03125 417.355469 C 294.03125 417.050781 294.089844 416.761719 294.203125 416.480469 C 294.320312 416.203125 294.484375 415.957031 294.699219 415.742188 C 294.910156 415.53125 295.15625 415.363281 295.4375 415.25 C 295.714844 415.132812 296.007812 415.074219 296.308594 415.074219 L 297.199219 415.074219 C 297.683594 415.078125 298.125 414.9375 298.519531 414.65625 C 298.917969 414.375 299.195312 414.003906 299.351562 413.542969 C 299.59375 412.824219 299.882812 412.125 300.21875 411.445312 C 300.4375 411.007812 300.503906 410.550781 300.425781 410.066406 C 300.34375 409.585938 300.132812 409.175781 299.789062 408.828125 L 299.15625 408.199219 C 298.945312 407.988281 298.78125 407.742188 298.664062 407.460938 C 298.546875 407.183594 298.492188 406.890625 298.492188 406.589844 C 298.492188 406.289062 298.546875 405.996094 298.664062 405.71875 C 298.78125 405.441406 298.945312 405.191406 299.15625 404.980469 L 301.492188 402.644531 C 301.707031 402.429688 301.953125 402.265625 302.230469 402.152344 C 302.511719 402.035156 302.800781 401.976562 303.101562 401.976562 C 303.40625 401.976562 303.695312 402.035156 303.972656 402.152344 C 304.253906 402.265625 304.5 402.429688 304.714844 402.644531 L 305.34375 403.273438 C 305.6875 403.621094 306.101562 403.832031 306.582031 403.910156 C 307.0625 403.992188 307.523438 403.921875 307.960938 403.707031 C 308.640625 403.371094 309.339844 403.078125 310.058594 402.835938 C 310.515625 402.679688 310.890625 402.402344 311.171875 402.003906 C 311.453125 401.609375 311.59375 401.167969 311.59375 400.683594 L 311.59375 399.792969 C 311.59375 399.492188 311.652344 399.199219 311.769531 398.921875 C 311.882812 398.640625 312.046875 398.394531 312.261719 398.183594 C 312.476562 397.96875 312.722656 397.804688 313 397.6875 C 313.28125 397.574219 313.570312 397.515625 313.871094 397.515625 L 317.175781 397.515625 C 317.476562 397.515625 317.765625 397.574219 318.046875 397.6875 C 318.324219 397.804688 318.570312 397.96875 318.785156 398.183594 C 319 398.394531 319.164062 398.640625 319.277344 398.921875 C 319.394531 399.199219 319.453125 399.492188 319.453125 399.792969 L 319.453125 400.683594 C 319.449219 401.167969 319.589844 401.609375 319.875 402.007812 C 320.15625 402.402344 320.527344 402.679688 320.988281 402.835938 C 321.707031 403.078125 322.40625 403.367188 323.085938 403.703125 C 323.523438 403.921875 323.984375 403.988281 324.464844 403.910156 C 324.945312 403.828125 325.359375 403.617188 325.703125 403.273438 L 326.332031 402.640625 C 326.546875 402.429688 326.792969 402.265625 327.070312 402.148438 C 327.351562 402.035156 327.640625 401.976562 327.941406 401.976562 C 328.246094 401.976562 328.535156 402.035156 328.8125 402.148438 C 329.09375 402.265625 329.339844 402.429688 329.550781 402.640625 L 331.691406 404.78125 C 345.816406 384.746094 337.933594 360.925781 337.933594 360.925781 C 337.933594 360.925781 341.128906 372.457031 304.8125 376.300781 C 274.660156 379.492188 269.605469 415.40625 268.761719 427.511719 C 269.195312 426.785156 269.636719 426.035156 270.128906 425.296875 C 270.449219 424.804688 270.761719 424.300781 271.097656 423.800781 L 272.132812 422.300781 C 272.476562 421.789062 272.847656 421.292969 273.222656 420.789062 C 273.40625 420.535156 273.59375 420.285156 273.78125 420.027344 C 273.96875 419.773438 274.15625 419.515625 274.355469 419.269531 L 275.546875 417.757812 L 275.847656 417.375 L 276.160156 417.003906 L 276.792969 416.253906 L 277.425781 415.5 C 277.632812 415.246094 277.863281 415.007812 278.078125 414.757812 C 278.519531 414.265625 278.964844 413.773438 279.410156 413.277344 C 281.226562 411.328125 283.152344 409.429688 285.148438 407.617188 C 287.164062 405.824219 289.246094 404.117188 291.363281 402.53125 L 292.960938 401.375 C 293.226562 401.1875 293.492188 400.988281 293.761719 400.808594 L 294.570312 400.265625 L 295.371094 399.726562 L 295.769531 399.457031 L 296.171875 399.199219 L 297.78125 398.191406 C 298.042969 398.023438 298.316406 397.867188 298.582031 397.710938 L 299.382812 397.242188 C 299.914062 396.929688 300.4375 396.617188 300.972656 396.335938 L 302.546875 395.488281 C 303.066406 395.210938 303.589844 394.960938 304.101562 394.699219 C 305.117188 394.171875 306.136719 393.722656 307.113281 393.269531 C 307.597656 393.035156 308.09375 392.84375 308.566406 392.636719 L 309.972656 392.042969 C 310.90625 391.6875 311.792969 391.335938 312.644531 391.023438 C 313.503906 390.726562 314.316406 390.4375 315.082031 390.183594 L 317.242188 389.515625 L 317.488281 389.4375 L 317.734375 389.371094 L 318.207031 389.238281 C 318.515625 389.15625 318.808594 389.074219 319.089844 389 L 319.882812 388.785156 C 320.128906 388.714844 320.367188 388.667969 320.585938 388.613281 L 321.695312 388.347656 L 322.621094 388.128906 L 321.722656 388.425781 L 320.636719 388.789062 C 320.425781 388.859375 320.195312 388.925781 319.953125 389.019531 L 319.183594 389.300781 L 318.328125 389.613281 L 317.871094 389.78125 L 317.636719 389.867188 L 317.398438 389.964844 L 315.316406 390.808594 C 314.582031 391.128906 313.804688 391.480469 312.988281 391.847656 C 312.175781 392.226562 311.332031 392.648438 310.445312 393.078125 L 309.117188 393.78125 C 308.667969 394.023438 308.199219 394.25 307.746094 394.523438 C 306.828125 395.050781 305.867188 395.574219 304.917969 396.175781 C 304.441406 396.472656 303.953125 396.761719 303.472656 397.074219 L 302.015625 398.035156 C 301.519531 398.355469 301.039062 398.703125 300.546875 399.050781 L 299.804688 399.574219 C 299.558594 399.75 299.308594 399.921875 299.070312 400.109375 L 297.597656 401.222656 L 297.226562 401.507812 L 296.136719 402.386719 L 295.402344 402.980469 C 295.15625 403.179688 294.921875 403.386719 294.679688 403.59375 L 293.234375 404.835938 C 291.332031 406.539062 289.476562 408.347656 287.699219 410.226562 C 285.945312 412.121094 284.269531 414.085938 282.710938 416.078125 L 281.574219 417.589844 C 281.386719 417.84375 281.191406 418.085938 281.015625 418.34375 L 280.480469 419.109375 L 279.953125 419.867188 L 279.6875 420.242188 L 279.433594 420.625 L 278.4375 422.144531 C 278.269531 422.394531 278.117188 422.652344 277.960938 422.90625 L 277.5 423.664062 C 277.191406 424.164062 276.882812 424.660156 276.605469 425.164062 L 275.757812 426.652344 C 275.484375 427.140625 275.234375 427.636719 274.976562 428.121094 C 274.453125 429.082031 274.003906 430.050781 273.550781 430.972656 C 273.53125 431.011719 273.515625 431.046875 273.496094 431.082031 C 283.789062 430.117188 292.53125 428.355469 299.957031 426.011719 C 299.730469 425.511719 299.53125 425 299.351562 424.472656 C 299.195312 424.011719 298.917969 423.640625 298.523438 423.355469 C 298.125 423.074219 297.683594 422.933594 297.199219 422.933594 Z M 297.199219 422.933594 " fill-opacity="1" fill-rule="nonzero"/></g><path fill="#ffffff" d="M 331.691406 404.78125 C 331.492188 405.066406 331.285156 405.351562 331.078125 405.632812 C 331.289062 405.351562 331.492188 405.066406 331.691406 404.78125 Z M 331.691406 404.78125 " fill-opacity="1" fill-rule="nonzero"/><g clip-path="url(#73ebb5cd7c)"><path fill="#ffffff" d="M 339.5 368.167969 C 338.351562 371.722656 332.449219 378.511719 304.832031 381.292969 C 286.421875 383.144531 276.902344 396.011719 271.980469 408.851562 C 269.839844 416.355469 269.050781 423.34375 268.757812 427.511719 C 269.191406 426.785156 269.636719 426.035156 270.128906 425.296875 C 270.445312 424.804688 270.761719 424.300781 271.097656 423.800781 L 272.132812 422.300781 C 272.476562 421.789062 272.847656 421.292969 273.21875 420.789062 C 273.40625 420.535156 273.59375 420.285156 273.78125 420.027344 C 273.96875 419.773438 274.15625 419.515625 274.355469 419.269531 L 275.546875 417.757812 L 275.847656 417.375 L 276.160156 417.003906 L 276.792969 416.253906 L 277.425781 415.5 C 277.632812 415.246094 277.863281 415.007812 278.078125 414.757812 L 279.40625 413.277344 C 281.226562 411.328125 283.148438 409.429688 285.144531 407.617188 C 287.160156 405.824219 289.246094 404.121094 291.363281 402.53125 L 292.960938 401.375 C 293.226562 401.1875 293.492188 400.988281 293.761719 400.808594 L 294.570312 400.265625 L 295.371094 399.726562 L 295.769531 399.457031 L 296.171875 399.199219 L 297.78125 398.191406 C 298.042969 398.023438 298.316406 397.867188 298.582031 397.710938 L 299.382812 397.242188 C 299.914062 396.929688 300.4375 396.617188 300.972656 396.335938 L 302.546875 395.488281 C 303.066406 395.210938 303.589844 394.960938 304.101562 394.699219 C 305.117188 394.171875 306.136719 393.722656 307.113281 393.269531 C 307.597656 393.035156 308.09375 392.84375 308.566406 392.636719 L 309.972656 392.042969 C 310.90625 391.6875 311.792969 391.335938 312.644531 391.023438 C 313.503906 390.726562 314.316406 390.4375 315.082031 390.183594 L 317.242188 389.515625 L 317.488281 389.4375 L 317.734375 389.371094 L 318.207031 389.238281 C 318.515625 389.15625 318.808594 389.074219 319.089844 389 L 319.882812 388.785156 C 320.128906 388.714844 320.367188 388.667969 320.585938 388.613281 L 321.695312 388.347656 L 322.621094 388.128906 L 321.722656 388.425781 L 320.636719 388.789062 C 320.425781 388.859375 320.195312 388.925781 319.953125 389.019531 L 319.183594 389.300781 L 318.328125 389.613281 L 317.871094 389.78125 L 317.636719 389.867188 L 317.398438 389.964844 L 315.316406 390.808594 C 314.582031 391.128906 313.804688 391.480469 312.988281 391.847656 C 312.175781 392.226562 311.332031 392.648438 310.445312 393.078125 L 309.117188 393.78125 C 308.667969 394.023438 308.199219 394.25 307.746094 394.519531 C 306.828125 395.050781 305.867188 395.574219 304.917969 396.175781 C 304.441406 396.472656 303.953125 396.761719 303.472656 397.074219 L 302.015625 398.035156 C 301.519531 398.351562 301.039062 398.703125 300.546875 399.046875 L 299.804688 399.574219 C 299.558594 399.75 299.308594 399.921875 299.070312 400.109375 L 297.597656 401.222656 L 297.226562 401.507812 L 296.136719 402.386719 L 295.402344 402.980469 C 295.15625 403.179688 294.921875 403.386719 294.679688 403.59375 L 293.234375 404.835938 C 291.332031 406.539062 289.476562 408.347656 287.699219 410.226562 C 285.945312 412.121094 284.269531 414.085938 282.710938 416.078125 L 281.574219 417.589844 C 281.386719 417.84375 281.191406 418.085938 281.015625 418.34375 L 280.480469 419.109375 L 279.953125 419.867188 L 279.6875 420.242188 L 279.433594 420.625 L 278.4375 422.144531 C 278.269531 422.394531 278.117188 422.652344 277.960938 422.90625 L 277.5 423.664062 C 277.191406 424.164062 276.882812 424.660156 276.605469 425.164062 L 275.757812 426.652344 C 275.484375 427.140625 275.234375 427.636719 274.976562 428.121094 C 274.453125 429.082031 274.003906 430.050781 273.550781 430.972656 C 273.53125 431.011719 273.515625 431.046875 273.496094 431.082031 C 283.789062 430.117188 292.53125 428.355469 299.957031 426.011719 C 299.730469 425.511719 299.53125 425 299.351562 424.472656 C 299.195312 424.011719 298.917969 423.640625 298.523438 423.355469 C 298.125 423.074219 297.683594 422.933594 297.199219 422.933594 L 296.308594 422.933594 C 296.007812 422.933594 295.714844 422.875 295.4375 422.761719 C 295.15625 422.644531 294.910156 422.480469 294.699219 422.265625 C 294.484375 422.054688 294.320312 421.804688 294.203125 421.527344 C 294.089844 421.25 294.03125 420.957031 294.03125 420.65625 L 294.03125 417.355469 C 294.03125 417.050781 294.089844 416.761719 294.203125 416.480469 C 294.320312 416.203125 294.484375 415.957031 294.699219 415.742188 C 294.910156 415.53125 295.15625 415.363281 295.4375 415.25 C 295.714844 415.132812 296.007812 415.074219 296.308594 415.074219 L 297.199219 415.074219 C 297.683594 415.078125 298.125 414.9375 298.519531 414.65625 C 298.917969 414.375 299.195312 414.003906 299.351562 413.542969 C 299.59375 412.824219 299.882812 412.125 300.21875 411.445312 C 300.4375 411.007812 300.503906 410.550781 300.425781 410.066406 C 300.34375 409.585938 300.132812 409.175781 299.789062 408.828125 L 299.15625 408.199219 C 298.945312 407.988281 298.78125 407.742188 298.664062 407.460938 C 298.546875 407.183594 298.492188 406.890625 298.492188 406.589844 C 298.492188 406.289062 298.546875 405.996094 298.664062 405.71875 C 298.78125 405.441406 298.945312 405.191406 299.15625 404.980469 L 301.492188 402.644531 C 301.707031 402.429688 301.953125 402.265625 302.230469 402.152344 C 302.511719 402.035156 302.800781 401.976562 303.101562 401.976562 C 303.40625 401.976562 303.695312 402.035156 303.972656 402.152344 C 304.253906 402.265625 304.5 402.429688 304.714844 402.644531 L 305.34375 403.273438 C 305.6875 403.621094 306.101562 403.832031 306.582031 403.910156 C 307.0625 403.992188 307.523438 403.921875 307.960938 403.707031 C 308.640625 403.371094 309.339844 403.078125 310.058594 402.835938 C 310.515625 402.679688 310.890625 402.402344 311.171875 402.003906 C 311.453125 401.609375 311.59375 401.167969 311.59375 400.683594 L 311.59375 399.792969 C 311.59375 399.492188 311.652344 399.199219 311.769531 398.921875 C 311.882812 398.640625 312.046875 398.394531 312.261719 398.183594 C 312.476562 397.96875 312.722656 397.804688 313 397.6875 C 313.28125 397.574219 313.570312 397.515625 313.871094 397.515625 L 317.175781 397.515625 C 317.476562 397.515625 317.765625 397.574219 318.046875 397.6875 C 318.324219 397.804688 318.570312 397.96875 318.785156 398.183594 C 319 398.394531 319.164062 398.640625 319.277344 398.921875 C 319.394531 399.199219 319.453125 399.492188 319.453125 399.792969 L 319.453125 400.683594 C 319.449219 401.167969 319.589844 401.609375 319.875 402.007812 C 320.15625 402.402344 320.527344 402.679688 320.988281 402.835938 C 321.707031 403.078125 322.40625 403.367188 323.085938 403.703125 C 323.523438 403.921875 323.984375 403.988281 324.464844 403.910156 C 324.945312 403.828125 325.359375 403.617188 325.703125 403.273438 L 326.332031 402.640625 C 326.546875 402.429688 326.792969 402.265625 327.070312 402.148438 C 327.351562 402.035156 327.640625 401.976562 327.941406 401.976562 C 328.246094 401.976562 328.535156 402.035156 328.8125 402.148438 C 329.09375 402.265625 329.339844 402.429688 329.550781 402.640625 L 331.691406 404.78125 C 340.988281 391.589844 340.75 376.761719 339.5 368.167969 Z M 339.5 368.167969 " fill-opacity="1" fill-rule="nonzero"/></g><g clip-path="url(#3474f82b89)"><path fill="#ffffff" d="M 304.832031 381.292969 C 332.449219 378.515625 338.351562 371.722656 339.503906 368.167969 C 338.855469 363.707031 337.933594 360.925781 337.933594 360.925781 C 337.933594 360.925781 341.128906 372.457031 304.8125 376.300781 C 285.039062 378.394531 276.0625 394.558594 271.984375 408.851562 C 276.902344 396.011719 286.421875 383.144531 304.832031 381.292969 Z M 304.832031 381.292969 " fill-opacity="1" fill-rule="nonzero"/></g><path fill="#ffffff" d="M 330.339844 406.601562 C 330.125 406.875 329.90625 407.148438 329.6875 407.417969 C 329.90625 407.148438 330.125 406.875 330.339844 406.601562 Z M 330.339844 406.601562 " fill-opacity="1" fill-rule="nonzero"/><path fill="#ffffff" d="M 324.640625 410.074219 L 324.335938 409.832031 C 324.242188 409.75 324.121094 409.652344 323.972656 409.546875 C 323.824219 409.441406 323.664062 409.316406 323.46875 409.1875 C 323.011719 408.871094 322.535156 408.585938 322.042969 408.328125 C 321.410156 407.996094 320.753906 407.71875 320.078125 407.492188 C 319.28125 407.230469 318.46875 407.042969 317.640625 406.933594 C 317.191406 406.875 316.742188 406.839844 316.289062 406.832031 L 315.597656 406.832031 C 315.355469 406.84375 315.097656 406.847656 314.863281 406.871094 C 314.628906 406.894531 314.398438 406.910156 314.15625 406.953125 L 313.792969 407.007812 L 313.433594 407.078125 C 312.953125 407.171875 312.472656 407.3125 311.996094 407.453125 C 311.03125 407.769531 310.117188 408.195312 309.261719 408.742188 C 308.398438 409.277344 307.617188 409.910156 306.90625 410.636719 C 306.5625 410.992188 306.234375 411.367188 305.929688 411.757812 C 305.628906 412.140625 305.355469 412.542969 305.109375 412.957031 C 304.628906 413.753906 304.242188 414.589844 303.945312 415.464844 C 303.679688 416.261719 303.492188 417.070312 303.375 417.898438 C 303.28125 418.609375 303.242188 419.320312 303.253906 420.035156 C 303.269531 420.589844 303.316406 421.140625 303.394531 421.691406 C 303.464844 422.152344 303.535156 422.511719 303.589844 422.757812 C 303.644531 423 303.675781 423.132812 303.675781 423.132812 C 303.675781 423.132812 303.617188 423.011719 303.519531 422.78125 C 303.375 422.441406 303.25 422.101562 303.144531 421.75 C 302.972656 421.203125 302.84375 420.644531 302.761719 420.078125 C 302.710938 419.75 302.671875 419.390625 302.644531 419.023438 C 302.621094 418.65625 302.617188 418.25 302.632812 417.839844 C 302.660156 416.941406 302.789062 416.058594 303.015625 415.191406 C 303.140625 414.71875 303.289062 414.25 303.460938 413.792969 C 303.648438 413.3125 303.867188 412.847656 304.113281 412.394531 C 304.628906 411.4375 305.253906 410.566406 305.996094 409.773438 C 306.761719 408.949219 307.621094 408.242188 308.574219 407.644531 C 309.53125 407.058594 310.546875 406.597656 311.621094 406.265625 C 312.144531 406.105469 312.675781 405.980469 313.21875 405.898438 L 313.617188 405.835938 L 314.011719 405.792969 C 314.277344 405.761719 314.550781 405.753906 314.816406 405.738281 C 315.078125 405.71875 315.316406 405.730469 315.566406 405.726562 C 315.65625 405.726562 315.699219 405.734375 315.773438 405.734375 L 315.964844 405.746094 C 316.089844 405.753906 316.21875 405.757812 316.34375 405.769531 C 316.832031 405.816406 317.316406 405.886719 317.796875 405.984375 C 318.675781 406.160156 319.523438 406.433594 320.34375 406.804688 C 321.03125 407.109375 321.679688 407.476562 322.296875 407.90625 C 322.765625 408.234375 323.210938 408.59375 323.625 408.992188 C 323.800781 409.148438 323.949219 409.304688 324.074219 409.4375 C 324.199219 409.570312 324.304688 409.683594 324.386719 409.78125 Z M 324.640625 410.074219 " fill-opacity="1" fill-rule="nonzero"/><g clip-path="url(#ee9f0ad19d)"><g clip-path="url(#4595eb165c)"><path fill="#118f31" d="M 258 590.417969 L 370.980469 590.417969 L 370.980469 703.398438 L 258 703.398438 Z M 258 590.417969 " fill-opacity="1" fill-rule="nonzero"/></g></g><g fill="#000000" fill-opacity="1"><g transform="translate(266.532897, 733.480676)"><g><path d="M 9.71875 -13.390625 L 9.71875 -11.96875 L 6.0625 -11.96875 L 6.0625 0 L 4.328125 0 L 4.328125 -11.96875 L 0.65625 -11.96875 L 0.65625 -13.390625 Z M 9.71875 -13.390625 "/></g></g></g><g fill="#000000" fill-opacity="1"><g transform="translate(276.921596, 733.480676)"><g><path d="M 3.21875 -11.96875 L 3.21875 -7.484375 L 8.109375 -7.484375 L 8.109375 -6.046875 L 3.21875 -6.046875 L 3.21875 -1.4375 L 8.6875 -1.4375 L 8.6875 0 L 1.484375 0 L 1.484375 -13.40625 L 8.6875 -13.40625 L 8.6875 -11.96875 Z M 3.21875 -11.96875 "/></g></g></g><g fill="#000000" fill-opacity="1"><g transform="translate(286.772599, 733.480676)"><g><path d="M 8.53125 0 L 5.34375 -5.46875 L 3.21875 -5.46875 L 3.21875 0 L 1.484375 0 L 1.484375 -13.390625 L 5.796875 -13.390625 C 6.804688 -13.390625 7.660156 -13.210938 8.359375 -12.859375 C 9.054688 -12.515625 9.578125 -12.046875 9.921875 -11.453125 C 10.273438 -10.867188 10.453125 -10.203125 10.453125 -9.453125 C 10.453125 -8.523438 10.1875 -7.707031 9.65625 -7 C 9.125 -6.300781 8.328125 -5.835938 7.265625 -5.609375 L 10.625 0 Z M 3.21875 -6.875 L 5.796875 -6.875 C 6.742188 -6.875 7.453125 -7.109375 7.921875 -7.578125 C 8.398438 -8.046875 8.640625 -8.671875 8.640625 -9.453125 C 8.640625 -10.242188 8.40625 -10.851562 7.9375 -11.28125 C 7.46875 -11.71875 6.753906 -11.9375 5.796875 -11.9375 L 3.21875 -11.9375 Z M 3.21875 -6.875 "/></g></g></g><g fill="#000000" fill-opacity="1"><g transform="translate(298.447875, 733.480676)"><g><path d="M 0.828125 -6.703125 C 0.828125 -8.003906 1.117188 -9.175781 1.703125 -10.21875 C 2.296875 -11.269531 3.097656 -12.085938 4.109375 -12.671875 C 5.128906 -13.265625 6.265625 -13.5625 7.515625 -13.5625 C 8.972656 -13.5625 10.242188 -13.207031 11.328125 -12.5 C 12.421875 -11.789062 13.21875 -10.789062 13.71875 -9.5 L 11.625 -9.5 C 11.25 -10.3125 10.710938 -10.929688 10.015625 -11.359375 C 9.316406 -11.796875 8.484375 -12.015625 7.515625 -12.015625 C 6.578125 -12.015625 5.734375 -11.796875 4.984375 -11.359375 C 4.242188 -10.929688 3.660156 -10.316406 3.234375 -9.515625 C 2.816406 -8.710938 2.609375 -7.773438 2.609375 -6.703125 C 2.609375 -5.640625 2.816406 -4.707031 3.234375 -3.90625 C 3.660156 -3.101562 4.242188 -2.484375 4.984375 -2.046875 C 5.734375 -1.617188 6.578125 -1.40625 7.515625 -1.40625 C 8.484375 -1.40625 9.316406 -1.617188 10.015625 -2.046875 C 10.710938 -2.472656 11.25 -3.085938 11.625 -3.890625 L 13.71875 -3.890625 C 13.21875 -2.617188 12.421875 -1.632812 11.328125 -0.9375 C 10.242188 -0.238281 8.972656 0.109375 7.515625 0.109375 C 6.265625 0.109375 5.128906 -0.175781 4.109375 -0.75 C 3.097656 -1.332031 2.296875 -2.144531 1.703125 -3.1875 C 1.117188 -4.226562 0.828125 -5.398438 0.828125 -6.703125 Z M 0.828125 -6.703125 "/></g></g></g><g fill="#000000" fill-opacity="1"><g transform="translate(313.272409, 733.480676)"><g><path d="M 3.21875 -13.390625 L 3.21875 0 L 1.484375 0 L 1.484375 -13.390625 Z M 3.21875 -13.390625 "/></g></g></g><g fill="#000000" fill-opacity="1"><g transform="translate(317.996296, 733.480676)"><g><path d="M 9.390625 -2.96875 L 3.546875 -2.96875 L 2.484375 0 L 0.640625 0 L 5.46875 -13.3125 L 7.484375 -13.3125 L 12.3125 0 L 10.46875 0 Z M 8.890625 -4.390625 L 6.46875 -11.15625 L 4.046875 -4.390625 Z M 8.890625 -4.390625 "/></g></g></g><g fill="#000000" fill-opacity="1"><g transform="translate(330.938956, 733.480676)"><g><path d="M 8.53125 0 L 5.34375 -5.46875 L 3.21875 -5.46875 L 3.21875 0 L 1.484375 0 L 1.484375 -13.390625 L 5.796875 -13.390625 C 6.804688 -13.390625 7.660156 -13.210938 8.359375 -12.859375 C 9.054688 -12.515625 9.578125 -12.046875 9.921875 -11.453125 C 10.273438 -10.867188 10.453125 -10.203125 10.453125 -9.453125 C 10.453125 -8.523438 10.1875 -7.707031 9.65625 -7 C 9.125 -6.300781 8.328125 -5.835938 7.265625 -5.609375 L 10.625 0 Z M 3.21875 -6.875 L 5.796875 -6.875 C 6.742188 -6.875 7.453125 -7.109375 7.921875 -7.578125 C 8.398438 -8.046875 8.640625 -8.671875 8.640625 -9.453125 C 8.640625 -10.242188 8.40625 -10.851562 7.9375 -11.28125 C 7.46875 -11.71875 6.753906 -11.9375 5.796875 -11.9375 L 3.21875 -11.9375 Z M 3.21875 -6.875 "/></g></g></g><g fill="#000000" fill-opacity="1"><g transform="translate(342.614232, 733.480676)"><g><path d="M 3.21875 -13.390625 L 3.21875 0 L 1.484375 0 L 1.484375 -13.390625 Z M 3.21875 -13.390625 "/></g></g></g><g fill="#000000" fill-opacity="1"><g transform="translate(347.338119, 733.480676)"><g><path d="M 7.546875 0.140625 C 6.304688 0.140625 5.171875 -0.148438 4.140625 -0.734375 C 3.117188 -1.316406 2.3125 -2.128906 1.71875 -3.171875 C 1.125 -4.222656 0.828125 -5.398438 0.828125 -6.703125 C 0.828125 -8.003906 1.125 -9.175781 1.71875 -10.21875 C 2.3125 -11.269531 3.117188 -12.082031 4.140625 -12.65625 C 5.171875 -13.238281 6.304688 -13.53125 7.546875 -13.53125 C 8.796875 -13.53125 9.929688 -13.238281 10.953125 -12.65625 C 11.984375 -12.082031 12.789062 -11.273438 13.375 -10.234375 C 13.96875 -9.203125 14.265625 -8.023438 14.265625 -6.703125 C 14.265625 -5.378906 13.96875 -4.195312 13.375 -3.15625 C 12.789062 -2.125 11.984375 -1.316406 10.953125 -0.734375 C 9.929688 -0.148438 8.796875 0.140625 7.546875 0.140625 Z M 7.546875 -1.375 C 8.484375 -1.375 9.328125 -1.59375 10.078125 -2.03125 C 10.828125 -2.46875 11.414062 -3.085938 11.84375 -3.890625 C 12.269531 -4.703125 12.484375 -5.640625 12.484375 -6.703125 C 12.484375 -7.773438 12.269531 -8.710938 11.84375 -9.515625 C 11.414062 -10.316406 10.828125 -10.929688 10.078125 -11.359375 C 9.335938 -11.796875 8.492188 -12.015625 7.546875 -12.015625 C 6.597656 -12.015625 5.75 -11.796875 5 -11.359375 C 4.257812 -10.929688 3.675781 -10.316406 3.25 -9.515625 C 2.820312 -8.710938 2.609375 -7.773438 2.609375 -6.703125 C 2.609375 -5.640625 2.820312 -4.703125 3.25 -3.890625 C 3.675781 -3.085938 4.265625 -2.46875 5.015625 -2.03125 C 5.765625 -1.59375 6.609375 -1.375 7.546875 -1.375 Z M 7.546875 -1.375 "/></g></g></g><g clip-path="url(#52a6fce897)"><path fill="#ffffff" d="M 357.78125 646.132812 L 354.773438 646.132812 C 354.234375 643.820312 352.226562 639.117188 352.152344 638.960938 L 356.007812 636.722656 C 357.085938 636.109375 357.859375 635.105469 358.167969 633.871094 C 358.476562 632.714844 358.320312 631.402344 357.703125 630.398438 L 355.390625 626.390625 C 354.078125 624.230469 351.226562 623.460938 348.988281 624.691406 L 345.054688 626.929688 C 343.4375 625 341.660156 623.226562 339.734375 621.683594 L 341.96875 617.828125 C 342.585938 616.75 342.742188 615.515625 342.433594 614.359375 C 342.125 613.125 341.351562 612.121094 340.273438 611.503906 L 336.1875 609.191406 C 333.949219 607.957031 331.097656 608.652344 329.785156 610.886719 L 327.546875 614.746094 C 325.15625 613.894531 322.6875 613.203125 320.222656 612.816406 L 320.222656 608.34375 C 320.222656 605.796875 318.140625 603.714844 315.515625 603.714844 L 310.8125 603.714844 C 308.265625 603.714844 306.109375 605.796875 306.109375 608.34375 L 306.109375 612.816406 C 303.5625 613.203125 301.171875 613.894531 298.78125 614.746094 L 296.542969 610.886719 C 295.234375 608.730469 292.378906 607.957031 290.144531 609.191406 L 286.054688 611.503906 C 284.976562 612.121094 284.203125 613.125 283.894531 614.359375 C 283.585938 615.515625 283.742188 616.828125 284.359375 617.828125 L 286.59375 621.683594 C 284.667969 623.304688 282.894531 625.078125 281.273438 626.929688 L 277.339844 624.691406 C 275.105469 623.460938 272.25 624.152344 270.9375 626.390625 L 268.625 630.398438 C 268.007812 631.480469 267.855469 632.714844 268.164062 633.871094 C 268.394531 635.105469 269.164062 636.109375 270.246094 636.722656 L 274.101562 638.960938 C 274.023438 639.117188 272.019531 643.820312 271.480469 646.132812 L 267.699219 646.132812 C 265.773438 646.132812 263.765625 647.367188 263.765625 650.761719 L 263.765625 655.386719 C 263.765625 656.238281 264.460938 656.929688 265.308594 656.929688 C 266.15625 656.929688 266.851562 656.238281 266.851562 655.386719 L 266.851562 650.761719 C 266.851562 649.21875 267.390625 649.21875 267.699219 649.21875 L 272.789062 649.21875 C 273.5625 649.21875 274.179688 648.679688 274.332031 647.90625 C 274.640625 645.515625 275.71875 643.125 276.722656 640.8125 C 277.03125 640.195312 277.261719 639.5 277.570312 638.882812 C 277.878906 638.191406 277.570312 637.339844 276.878906 636.957031 L 271.789062 634.101562 C 271.402344 633.871094 271.171875 633.5625 271.015625 633.175781 C 270.9375 632.792969 270.9375 632.40625 271.171875 632.019531 L 273.484375 628.007812 C 273.945312 627.238281 274.871094 627.007812 275.644531 627.46875 L 280.734375 630.324219 C 281.429688 630.707031 282.199219 630.554688 282.738281 629.9375 C 284.667969 627.46875 286.980469 625.234375 289.449219 623.304688 C 290.066406 622.84375 290.21875 621.992188 289.835938 621.300781 L 286.902344 616.285156 C 286.671875 615.902344 286.671875 615.515625 286.75 615.128906 C 286.828125 614.746094 287.136719 614.359375 287.519531 614.203125 L 291.609375 611.890625 C 292.378906 611.429688 293.382812 611.738281 293.769531 612.429688 L 296.699219 617.445312 C 297.085938 618.136719 297.855469 618.367188 298.625 618.0625 C 301.558594 616.902344 304.640625 616.054688 307.804688 615.667969 C 308.574219 615.59375 309.117188 614.898438 309.117188 614.128906 L 309.117188 608.34375 C 309.117188 607.496094 309.808594 606.800781 310.734375 606.800781 L 315.441406 606.800781 C 316.289062 606.800781 317.058594 607.496094 317.058594 608.34375 L 317.058594 614.128906 C 317.058594 614.898438 317.597656 615.515625 318.371094 615.667969 C 321.53125 616.132812 324.617188 616.902344 327.546875 618.0625 C 328.242188 618.367188 329.089844 618.0625 329.476562 617.445312 L 332.40625 612.429688 C 332.871094 611.660156 333.796875 611.429688 334.566406 611.890625 L 338.652344 614.203125 C 339.039062 614.4375 339.269531 614.746094 339.425781 615.128906 C 339.503906 615.515625 339.503906 615.902344 339.269531 616.285156 L 336.339844 621.300781 C 335.953125 621.992188 336.109375 622.84375 336.726562 623.304688 C 339.269531 625.234375 341.507812 627.46875 343.4375 629.9375 C 343.898438 630.554688 344.746094 630.707031 345.441406 630.324219 L 350.53125 627.46875 C 351.300781 627.007812 352.304688 627.316406 352.691406 628.007812 L 355.003906 632.019531 C 355.234375 632.40625 355.234375 632.792969 355.160156 633.175781 C 355.082031 633.5625 354.773438 633.949219 354.386719 634.101562 L 349.296875 636.957031 C 348.601562 637.339844 348.371094 638.191406 348.601562 638.882812 C 348.835938 639.5 351.457031 645.515625 351.84375 647.90625 C 351.917969 648.679688 352.613281 649.21875 353.382812 649.21875 L 357.703125 649.21875 C 358.550781 649.21875 359.324219 649.914062 359.324219 650.761719 L 359.324219 655.386719 C 359.324219 656.238281 360.015625 656.929688 360.867188 656.929688 C 361.714844 656.929688 362.40625 656.238281 362.40625 655.386719 L 362.40625 650.761719 C 362.484375 648.214844 360.402344 646.132812 357.78125 646.132812 Z M 357.78125 646.132812 " fill-opacity="1" fill-rule="nonzero"/></g><path fill="#ffffff" d="M 343.203125 653.847656 C 343.203125 637.265625 329.707031 623.769531 313.125 623.769531 C 296.542969 623.769531 283.046875 637.265625 283.046875 653.847656 C 283.046875 670.429688 296.542969 683.925781 313.125 683.925781 C 313.972656 683.925781 314.667969 683.230469 314.667969 682.382812 L 314.667969 655.386719 L 341.660156 655.386719 C 342.511719 655.386719 343.203125 654.695312 343.203125 653.847656 Z M 313.125 652.304688 C 312.277344 652.304688 311.582031 652.996094 311.582031 653.847656 L 311.582031 680.761719 C 297.390625 679.992188 286.132812 668.191406 286.132812 653.847656 C 286.132812 638.960938 298.242188 626.851562 313.125 626.851562 C 327.472656 626.851562 339.269531 638.113281 340.042969 652.304688 Z M 313.125 652.304688 " fill-opacity="1" fill-rule="nonzero"/><g clip-path="url(#65584d9dc8)"><path fill="#ffffff" d="M 347.832031 658.472656 L 319.296875 658.472656 C 318.449219 658.472656 317.753906 659.167969 317.753906 660.015625 L 317.753906 688.550781 C 317.753906 689.398438 318.449219 690.09375 319.296875 690.09375 C 335.878906 690.09375 349.375 676.597656 349.375 660.015625 C 349.375 659.167969 348.679688 658.472656 347.832031 658.472656 Z M 320.839844 686.933594 L 320.839844 661.558594 L 346.210938 661.558594 C 345.441406 675.210938 334.488281 686.160156 320.839844 686.933594 Z M 320.839844 686.933594 " fill-opacity="1" fill-rule="nonzero"/></g></svg>